<?xml version="1.0" encoding="utf-8"?>
<!-- Generator: Adobe Illustrator 23.0.6, SVG Export Plug-In . SVG Version: 6.00 Build 0)  -->
<svg version="1.1" id="Layer_1" xmlns="http://www.w3.org/2000/svg" xmlns:xlink="http://www.w3.org/1999/xlink" x="0px" y="0px"
	 viewBox="0 0 602.5 82.1" style="enable-background:new 0 0 602.5 82.1;" xml:space="preserve">
<style type="text/css">
	.st0{display:none;fill:none;stroke:#000000;stroke-width:0.6;stroke-linecap:round;stroke-miterlimit:10;}
	.st1{fill:#FFFFFF;stroke:#FFFFFF;stroke-miterlimit:10;}
</style>
<line class="st0" x1="-281.8" y1="242.6" x2="523.8" y2="242.6"/>
<g>
	<g>
		<path class="st1" d="M110,30.9c0.2-0.1,0.3-0.1,0.4-0.1c0.1,0.1,0,0.2-0.3,0.4c-0.6,0.3-1.5,0.7-2.7,1.2c-1.1,0.4-2.4,0.8-3.8,1.2
			c-1.4,0.3-2.9,0.6-4.4,0.9c-1.5,0.3-2.9,0.4-4.2,0.5c-0.6,1.9-1.2,3.5-1.6,4.8c-0.4,1.3-0.9,2.6-1.3,3.9c-0.5,1.3-0.8,2.4-1,3.2
			c-0.6,2-1.2,3.8-1.6,5.4c-0.5,1.6-0.9,3.1-1.2,4.5c-0.3,1.4-0.6,2.7-0.9,4c-0.3,1.3-0.5,2.6-0.7,3.8c-0.3,1.5-0.5,2.6-0.5,3.2
			c-0.1,0.6-0.1,1.3-0.1,2.1c0.1,2.7,0.7,4.7,1.8,5.9c0.3,0.3,0.5,0.4,0.7,0.4c0.2,0,0.5-0.2,0.9-0.5c0.3-0.3,0.7-0.5,1-0.5
			c0.2,0,0.3,0,0.3,0.1c0,0.1-0.2,0.3-0.6,0.6c-0.9,0.8-1.8,1-2.8,0.5c-0.6-0.3-1.2-0.9-1.7-1.9c-0.5-1-0.8-2.1-1-3.3
			c-0.1-1-0.1-2.1-0.1-3.2c0.1-1.1,0.3-2.5,0.6-4.4c0.5-3,1.3-6.5,2.4-10.4c1.1-3.9,2.4-8.2,4.1-13l1.5-4.5l0.3-1l-2-0.2
			c-0.9-0.1-1.8-0.2-2.8-0.3c-1-0.1-2.3-0.3-3.9-0.6c-0.3-0.1-0.5,0-0.6,0c-0.1,0.1-0.3,0.4-0.6,0.9L81.6,39
			c-1.9,3.6-3.7,6.6-5.4,8.9c-1.7,2.3-3.4,4.3-5.3,6c-1,0.9-1.7,1.5-2.2,1.8c-0.5,0.3-1,0.6-1.5,0.7c-0.8,0.2-1.3,0-1.4-0.4
			c0.1-0.3,0.2-0.4,0.4-0.1c0.3,0.5,1,0.4,2-0.3c0.5-0.3,0.7-0.5,0.6-0.7c-0.2-0.1-0.1-0.1,0.2-0.1c0.1,0.1,0.3,0,0.5-0.1
			c0.2-0.1,0.6-0.5,1.2-1.1c0.4-0.3,0.8-0.8,1.3-1.3c0.5-0.5,0.9-0.9,1.2-1.3c0.3-0.4,0.7-0.9,1.2-1.5c0.5-0.6,0.9-1.2,1.4-1.9
			c0.5-0.7,1-1.4,1.4-2.1c0.5-0.7,0.9-1.3,1.2-1.9c0.3-0.5,0.7-1.2,1.3-2.3c0.6-1.1,1.2-2.2,1.8-3.3c0.6-1.1,1.1-2.1,1.6-3
			c0.5-0.9,0.7-1.3,0.8-1.5c0-0.2-0.7-0.4-2.1-0.7c-1.4-0.3-3.1-0.6-5.2-0.9c-2.1-0.3-4.2-0.7-6.5-0.9c-2.3-0.3-4.3-0.5-6-0.6
			c-1.5-0.1-3.1-0.1-4.9,0.1C57.4,30.7,56,31,55,31.4c-0.6,0.2-1.4,0.6-2.2,1c-0.8,0.5-1.5,0.9-2.1,1.3c-0.5,0.4-1.2,1.1-2,2.1
			c-0.8,1-1.4,1.8-1.7,2.4c-0.3,0.6-0.6,1.3-0.7,2.1c-0.1,0.8-0.2,1.6-0.1,2.4c0.1,1.2,0,1.6-0.3,1.2c-0.1-0.2-0.2-0.5-0.3-0.9
			c-0.1-0.4-0.1-0.9-0.1-1.4c0-0.5,0-1,0.1-1.5c0.1-0.5,0.2-1,0.4-1.4c0.3-0.8,0.9-1.7,1.7-2.7c0.8-1,1.6-1.8,2.4-2.4
			c1.1-0.9,2.3-1.6,3.5-2.1c1.3-0.5,2.7-0.9,4.3-1.2c1.6-0.2,3.5-0.3,5.6-0.2c2.1,0.1,4.5,0.3,7.3,0.6c1.4,0.2,2.8,0.4,4.2,0.6
			c1.4,0.2,2.8,0.4,4,0.6c1.2,0.2,2.3,0.4,3.2,0.6c0.9,0.2,1.5,0.3,1.8,0.3c0.2,0.1,0.3,0,0.4-0.3c0.1-0.2,0.5-1,1.4-2.5
			c0.9-1.5,1.8-3.1,2.9-4.9c1.1-1.8,2.1-3.5,3-5.1c0.9-1.6,1.6-2.6,1.8-3c0.7-1,1.4-2.1,2.1-3.2c0.7-1.1,1.5-2.1,2.2-3.1
			c0.7-1,1.4-1.9,2.1-2.8s1.3-1.6,1.8-2.1c1-1.1,1.8-1.9,2.2-2.3c0.4-0.4,0.8-0.6,1.1-0.6c0.3,0,0.5,0.1,0.6,0.3
			c0.1,0.2,0.1,0.6,0,1.2c-0.1,0.3-0.2,1-0.6,2c-0.3,1-0.7,2.1-1.1,3.4c-0.4,1.3-0.9,2.6-1.4,4.1c-0.5,1.4-1,2.8-1.5,4l-2.3,6.1
			c-0.3,0.7-0.6,1.6-1,2.7c-0.4,1.1-0.7,2.2-1.1,3.3c-0.4,1.1-0.8,2.4-1.2,4c3.3-0.1,6.2-0.6,8.8-1.3
			C106.8,32.2,108.8,31.5,110,30.9z M94.3,32.7c0.8-2.5,1.6-4.8,2.4-7.1c0.8-2.3,1.8-4.8,2.9-7.6c1.8-4.4,3.1-7.8,4-10.4
			c0.9-2.5,1.2-3.8,1.1-3.8c-0.1,0-0.5,0.4-1.3,1.2c-0.7,0.8-1.5,1.6-2.1,2.4c-0.3,0.5-0.8,1-1.4,1.8c-0.6,0.7-1.2,1.5-1.8,2.4
			c-0.6,0.9-1.3,1.8-1.9,2.7c-0.7,0.9-1.2,1.8-1.8,2.6c-0.4,0.6-0.9,1.4-1.5,2.4c-0.6,1-1.3,2.1-2,3.3c-0.7,1.2-1.4,2.4-2.2,3.6
			c-0.7,1.2-1.4,2.3-2,3.3c-0.6,1-1.2,2.2-1.9,3.5c0.1,0.1,0.5,0.2,1.2,0.3c0.7,0.1,1.6,0.3,2.5,0.4c0.9,0.1,1.8,0.3,2.7,0.3
			c0.9,0.1,1.5,0.1,1.8,0.1h0.9L94.3,32.7z"/>
		<path class="st1" d="M104.4,44.1c-0.2,1.7-0.4,2.9-0.4,3.9c0,0.9,0,1.8,0.2,2.6c0.1,0.6,0.3,1.2,0.5,1.6c0.2,0.5,0.5,0.8,0.8,0.9
			c0.2,0.1,0.4,0.2,0.5,0.2c0.1,0,0.3-0.1,0.6-0.2c0.8-0.4,1.7-1.2,2.6-2.3c0.9-1.1,1.8-2.3,2.6-3.5c0.8-1.2,1.5-2.3,2.1-3.3
			c0.6-1,0.9-1.5,0.9-1.6c0-0.1,0.1-0.2,0.3-0.2c0.1,0,0.1,0.1,0.1,0.2c-0.1,0.1-0.2,0.5-0.5,1c-0.5,1-1.1,2-1.8,3
			c-0.7,1.1-1.3,2-2,2.9c-0.7,0.9-1.4,1.7-2,2.4c-0.7,0.7-1.2,1.2-1.8,1.5c-0.9,0.5-1.7,0.5-2.5,0c-1.4-1-1.9-3.5-1.5-7.5l0.2-2.6
			L102,45c-2.2,3.1-3.9,4.6-5,4.6c-0.3,0-0.6,0-0.7-0.1c-0.1-0.1-0.2-0.3-0.3-0.6c-0.1-0.3-0.1-1,0-1.9c0.1-0.9,0.3-1.8,0.6-2.6
			c0.3-0.7,0.7-1.6,1.4-2.6c0.6-1,1.1-1.7,1.5-2.1c0.5-0.5,1-0.8,1.5-1.1c0.5-0.3,1-0.4,1.4-0.4c0.3,0,0.6,0.1,0.9,0.4
			c0.3,0.3,0.5,0.5,0.6,0.8c0.1-0.1,0.1-0.4,0.2-0.9c0.1-0.5,0.2-1,0.3-1.5c0.3-1.7,0.8-3.6,1.4-5.5c0.6-2,1.3-4,2.1-6.1
			c0.8-2.1,1.6-4.2,2.6-6.3c0.9-2.1,1.9-4.1,3-6.1c1.4-2.7,2.5-4.7,3.3-6c0.8-1.3,1.6-2.3,2.3-3c0.3-0.3,0.6-0.6,0.7-0.6
			c0.1-0.1,0.3-0.1,0.6-0.1c0.7,0.1,0.9,0.8,0.8,2.3c-0.1,1.7-0.7,4.2-2,7.6c-0.5,1.5-1.3,3.4-2.2,5.5c-1,2.1-2,4.3-3.2,6.6
			c-1.2,2.3-2.4,4.6-3.6,6.9c-1.3,2.3-2.5,4.3-3.6,6.2l-1.6,2.7L104.4,44.1z M103.7,40.3c-0.1-0.3-0.3-0.6-0.5-0.9
			c-0.2-0.3-0.5-0.5-0.8-0.5c-0.5,0-1,0.4-1.7,1.1c-0.7,0.7-1.4,1.7-2.1,2.8c-0.7,1.1-1.2,2.3-1.5,3.5c-0.3,1.2-0.4,2.1-0.3,2.7
			c0.1,0.3,0.2,0.4,0.3,0.3c0.2-0.1,0.5-0.3,0.9-0.6c0.5-0.3,0.9-0.8,1.4-1.3c0.5-0.5,1.1-1.3,1.9-2.4c0.5-0.7,0.9-1.2,1.2-1.7
			c0.3-0.4,0.5-0.8,0.6-1.2c0.1-0.3,0.2-0.7,0.3-0.9C103.6,40.9,103.6,40.6,103.7,40.3z M105.9,35.5c-0.4,1.7-0.7,2.8-0.8,3.4
			c-0.1,0.6-0.1,0.8,0,0.7l1.2-1.8c0.7-1.2,1.6-2.6,2.5-4.2c0.9-1.6,1.8-3.3,2.7-5.1c0.9-1.8,1.8-3.6,2.7-5.4
			c0.9-1.8,1.7-3.6,2.5-5.2c0.6-1.4,1.2-2.7,1.7-4.1s0.9-2.7,1.3-3.9c0.3-1.2,0.6-2.3,0.7-3.3c0.1-1,0.2-1.7,0.1-2.2
			c-0.1-0.5-0.2-0.8-0.3-0.9c-0.1-0.1-0.4,0-0.6,0.3c-0.6,0.6-1.3,1.5-2.1,2.9c-0.8,1.3-1.9,3.4-3.3,6.1c-2,3.9-3.7,7.8-5.1,11.7
			C107.8,28.4,106.7,32.1,105.9,35.5z"/>
		<path class="st1" d="M129.3,42.2c0.1,0,0.2,0.1,0.2,0.3c0,0.2-0.1,0.3-0.2,0.3c-0.1,0.3-0.3,0.7-0.6,1.4c-0.3,0.6-0.6,1.3-1,2.1
			c-0.4,0.8-0.8,1.5-1.2,2.3s-0.8,1.5-1.2,2.1c-1.8,3.2-3.3,5.4-4.3,6.5c-1,1.1-1.9,1.4-2.7,1c-0.2-0.1-0.5-0.4-0.8-1.1
			c-0.2-0.5-0.3-0.8-0.3-1.1c0-0.3,0-0.9,0.1-1.9c0.1-0.9,0.2-1.8,0.3-2.6c0.1-0.8,0.3-1.6,0.5-2.4c0.2-0.8,0.4-1.7,0.7-2.6
			c0.3-0.9,0.7-1.9,1.1-3.1c0-0.2-0.3,0.2-0.9,1.2c-0.9,1.3-1.8,2.4-2.7,3.4c-0.9,0.9-1.7,1.5-2.2,1.6c-0.8,0.2-1.3,0-1.5-0.6
			c-0.2-0.6-0.2-1.4,0-2.4c0.2-1,0.7-2,1.3-3.1c0.7-1.1,1.5-2.1,2.4-3c0.6-0.5,1.1-0.9,1.5-1.1c0.4-0.2,0.8-0.3,1.3-0.3
			c0.7,0,1.2,0.4,1.5,1.3l0.1,0.7l0.5-0.9c0.2-0.5,0.4-0.7,0.6-0.9c0.2-0.1,0.3,0,0.4,0.3c0.1,0.1,0,0.5-0.3,1.2
			c-0.2,0.7-0.5,1.6-0.9,2.7c-1.5,4.3-2.4,7.6-2.8,9.8c-0.4,2.3-0.3,3.8,0.2,4.5c0.2,0.2,0.3,0.3,0.3,0.3c0.1,0,0.2-0.1,0.4-0.2
			c1-0.5,2.6-2.5,4.7-6c0.4-0.6,0.8-1.3,1.2-2.1c0.4-0.8,0.8-1.6,1.2-2.4c0.4-0.8,0.7-1.5,1.1-2.1c0.3-0.7,0.6-1.2,0.8-1.7
			C128.9,42.6,129.2,42.2,129.3,42.2z M120.4,41.8l-0.2-0.9c-0.1-0.5-0.3-0.8-0.4-1.1c-0.2-0.3-0.3-0.4-0.4-0.4
			c-0.2,0-0.4,0.1-0.7,0.4c-0.3,0.3-0.7,0.6-1.1,1c-0.4,0.4-0.8,0.9-1.2,1.4c-0.4,0.5-0.7,1-1,1.5c-0.6,1-1.1,2-1.5,3
			c-0.3,1.1-0.4,1.8-0.3,2.2c0.1,0.3,0.4,0.4,0.9,0.2c0.6-0.3,1.4-1,2.3-2.1c0.9-1.1,1.8-2.3,2.6-3.6L120.4,41.8z"/>
		<path class="st1" d="M139.8,53c-0.1-0.1-0.1-0.2-0.2-0.3c-0.1-0.1-0.2-0.3-0.2-0.6c-0.1-0.3-0.1-1.1,0-2.4
			c0.1-1.3,0.7-3.2,1.7-5.8c1.1-2.9,1.8-4.9,1.8-5.9c0.1-1,0-1.4-0.4-1.2c-0.4,0.2-1,0.8-1.8,1.6c-0.8,0.9-1.5,1.8-2.3,2.7
			c-0.7,1-1.4,1.9-2,2.7c-0.6,0.8-0.9,1.3-0.9,1.4c-0.1,0.2-0.2,0.4-0.3,0.6c-0.1,0.2-0.1,0.3-0.2,0.5c-0.1,0.1-0.1,0.2-0.1,0.3
			c-0.1,0.3-0.1,0.4-0.2,0.5c-0.1,0-0.2,0-0.3,0c-0.1,0-0.1-0.1-0.2-0.2c-0.1-0.2-0.1-0.5,0.1-1.1c0.1-0.3,0.2-0.9,0.4-1.8
			c0.2-0.8,0.4-1.7,0.7-2.5c0.5-1.6,0.7-2.7,0.9-3.2c0.1-0.5,0.1-0.9-0.2-1c-0.1-0.1-0.5,0.2-1.2,0.8c-0.7,0.6-1.2,1.2-1.7,1.8
			c-1.4,1.8-2.7,3.7-3.9,5.6c-1.1,1.9-1.9,3.3-2.1,4.4c-0.1,0.5-0.2,0.7-0.3,0.8c-0.1,0.1-0.2,0.1-0.3,0.1c-0.3,0-0.4-0.1-0.4-0.3
			c0-0.2,0.1-0.7,0.3-1.5c0.2-0.9,0.5-2,0.8-3.3c0.3-1.3,0.7-2.6,1.2-3.9c0.6-1.8,1.1-3,1.4-3.7c0.3-0.7,0.7-1.1,1.1-1.1
			c0.2,0,0.3,0.1,0.3,0.4c0,0.3-0.2,0.9-0.6,1.9c-0.2,0.5-0.4,1.1-0.6,1.8c-0.3,0.7-0.5,1.4-0.7,2.1c-0.2,0.7-0.4,1.2-0.5,1.8
			c-0.1,0.5-0.2,0.8-0.2,0.9c0,0.2,0.2,0,0.5-0.5c0.2-0.3,0.5-0.8,0.9-1.4c0.4-0.6,0.8-1.2,1.2-1.8c0.4-0.6,0.8-1.2,1.2-1.7
			c0.4-0.5,0.7-0.9,0.9-1.2c0.6-0.6,1.1-1.2,1.7-1.6c0.5-0.4,1-0.6,1.2-0.6c0.5,0,0.7,0.4,0.6,1.1c0,0.7-0.1,1.6-0.3,2.5
			c-0.2,1-0.5,2.2-0.9,3.5l1.5-2.1c0.7-1,1.5-1.9,2.4-2.9c0.8-1,1.5-1.7,2.1-2.1c0.4-0.3,0.7-0.6,0.8-0.6c0.1-0.1,0.4-0.1,0.6,0
			c0.4,0.1,0.7,0.5,0.8,1.3c0.1,0.8-0.3,2.3-1.2,4.6c-0.5,1.4-1,2.7-1.3,3.9c-0.4,1.2-0.7,2.3-0.9,3.3c-0.2,1-0.3,1.7-0.3,2.3
			c0,0.6,0.1,0.9,0.3,0.9c0.3,0,1-0.6,2.1-1.7c1-1.1,2.1-2.4,3.1-4l2.4-3.4c0.3-0.5,0.5-0.8,0.8-1.1c0.2-0.3,0.4-0.4,0.4-0.4
			c0.1,0,0.2,0,0.1,0.1c0,0.1-0.2,0.4-0.6,1l-1.7,2.5c-1.3,2.1-2.5,3.7-3.5,5c-1,1.3-1.9,2-2.5,2.3c-0.3,0.1-0.5,0.2-0.6,0.2
			C140.2,53.2,140,53.2,139.8,53z"/>
		<path class="st1" d="M211.6,42.2c0.2-0.1,0.4-0.1,0.6,0c0.1,0.1,0,0.2-0.3,0.5c-1.3,0.7-2.7,1-4.2,0.9c-1.5-0.1-3-0.3-4.4-0.8
			c-1.4-0.5-2.8-1-4-1.7c-1.2-0.7-2.2-1.2-3-1.8c-0.1,0-0.1,0.2-0.3,0.6c-0.1,0.4-0.2,0.9-0.3,1.5c-1.5,5.8-3.4,11.2-5.7,16.3
			c-2.2,4.7-4.4,8.3-6.7,10.8s-5,4.2-8,5c-0.5,0.2-1,0.3-1.7,0.4c-0.7,0.1-1.4,0.1-2.1,0.1c-0.7,0-1.4,0-2.1-0.1
			c-0.7-0.1-1.2-0.1-1.6-0.3c-1.7-0.5-3.2-1.3-4.5-2.5c-1.3-1.2-2.5-2.7-3.3-4.4c-0.9-1.7-1.5-3.7-1.9-5.9c-0.4-2.2-0.5-4.4-0.2-6.8
			c0.4-3.9,1.5-7.5,3.2-10.9c1.7-3.4,3.9-6,6.6-7.8c1.1-0.8,2.4-1.5,3.9-2.2c1.5-0.7,2.9-1.2,4.3-1.5c0.3-0.1,0.7-0.1,1.3-0.1
			c0.6,0,1.2,0,1.9,0c2.6,0,5.2,0.5,7.6,1.4l1.2,0.5l0.9-0.7c0.2-0.2,0.6-0.6,1.2-1c0.5-0.4,1.1-0.8,1.7-1.2c0.6-0.5,1.3-1,2.1-1.6
			c0.8-0.6,1.6-1.2,2.2-1.7l2.3-1.8l0.4-1.5c2.6-9.3,5.3-15.5,8.1-18.5c1.1-1.2,2.1-1.8,3.1-1.8c1.1,0,1.9,0.7,2.3,2.1
			c0.1,0.3,0.1,0.6,0.1,0.9c0,0.2-0.1,0.6-0.2,1c-0.2,0.6-0.5,1.5-0.9,2.5c-0.5,1-0.9,2-1.5,2.8c-0.5,0.7-1,1.5-1.6,2.4
			c-0.6,0.9-1.3,1.7-2.1,2.7c-0.7,0.9-1.5,1.8-2.4,2.7c-0.8,0.9-1.6,1.7-2.4,2.4l-1.6,1.5l-1.6,6.9c-0.4,1.7-0.7,3-0.9,3.9
			c-0.2,0.9-0.3,1.6-0.4,2.1c-0.1,0.5-0.1,0.8-0.1,0.9c0,0.1,0.1,0.2,0.1,0.3c0.9,0.6,1.9,1.3,3.2,1.9c1.3,0.6,2.6,1.2,3.9,1.6
			c1.4,0.4,2.7,0.7,4.1,0.7C209.2,43.2,210.4,42.9,211.6,42.2z M195.1,38.6l-0.3-0.3c-0.2-0.2-0.5-0.4-0.9-0.7
			c-0.4-0.3-0.9-0.6-1.4-0.9c-0.5-0.3-1-0.6-1.5-0.9c-0.5-0.3-1-0.6-1.4-0.8l-1.6-0.9l-1.1,1c-1.8,1.5-3.5,3.1-5,4.7
			c-1.5,1.6-2.5,2.8-3.1,3.7c-0.5,0.7-0.9,1.6-1.3,2.5c-0.4,0.9-0.8,1.9-1.2,2.9c-0.3,1-0.6,1.9-0.8,2.8c-0.2,0.9-0.3,1.7-0.3,2.3
			c0,0.5-0.1,0.7-0.3,0.7c-0.1,0-0.2-0.1-0.2-0.2c0-0.1,0-0.5,0-1c0.1-0.8,0.3-1.8,0.6-3.1c0.3-1.3,0.6-2.3,1-3.3
			c0.4-1,0.8-2,1.3-2.8c0.5-0.8,1.1-1.7,1.8-2.6c0.7-0.9,1.5-1.8,2.5-2.8c1-1,2.2-2.2,3.7-3.5l1.8-1.6l-0.8-0.3
			c-0.7-0.3-1.7-0.6-2.9-0.9c-1.3-0.3-2.3-0.5-3.3-0.6c-3.3-0.3-6.7,0.5-10.2,2.4c-2.9,1.6-5.4,3.9-7.4,6.8c-2,2.9-3.4,6.4-4.2,10.3
			c-0.1,0.5-0.2,1.2-0.3,2c-0.1,0.8-0.1,1.6-0.1,2.4c0,0.8,0,1.6,0,2.4c0,0.8,0.1,1.4,0.1,1.9c0.3,2.2,0.9,4.2,1.8,6.1
			c0.9,1.9,2,3.5,3.3,4.7c0.6,0.6,1.4,1.1,2.4,1.6c0.9,0.5,1.8,0.9,2.6,1c0.7,0.2,1.7,0.2,2.8,0.2c1.1,0,2.1-0.2,3-0.5
			c0.4-0.1,0.9-0.3,1.5-0.5c0.6-0.2,1.1-0.5,1.6-0.8c1.5-0.8,2.8-1.8,4.1-3c1.2-1.2,2.5-2.9,3.8-4.9c1.8-2.9,3.4-6.2,4.8-9.8
			c1.5-3.6,2.8-7.8,4.1-12.4L195.1,38.6z M195.3,37.6c0.1-0.1,0.2-0.6,0.5-1.8c0.3-1.1,0.6-2.4,0.9-4c0.3-1.5,0.6-2.9,0.9-3.9
			c0.3-1.1,0.4-1.7,0.3-1.7c-0.1,0.1-0.2,0.1-0.3,0.2c-0.1,0.1-0.3,0.2-0.4,0.3l-4.4,3.4l-4.1,3.2l-0.4,0.3l1.8,0.9
			c0.5,0.3,1,0.6,1.7,1c0.7,0.4,1.3,0.7,1.7,1C194.7,37.5,195.3,37.9,195.3,37.6z M199.8,23.5c-0.1,0.3,0.1,0.3,0.6-0.1
			c0.5-0.4,1.4-1.4,2.7-2.8c0.7-0.8,1.5-1.6,2.3-2.5c0.8-0.9,1.3-1.6,1.7-2c1.5-2.1,2.7-4,3.6-5.8c0.8-1.8,1.2-3.2,1-4.2
			c-0.2-0.9-0.6-1.6-1.2-2C210.1,4,210,4,209.9,4c-0.1,0-0.4,0.2-0.8,0.4c-1.4,0.7-2.8,2.6-4.4,5.7c-1.6,3-3,6.7-4.2,11.1
			L199.8,23.5z"/>
		<path class="st1" d="M210.5,50.5c-1.5-0.6-1.4-3,0.3-7.2c0.7-1.6,1.5-2.9,2.3-3.8c0.8-0.9,1.5-1.4,2.1-1.4c0.6,0,1,0.4,1,1.1
			c0,0.2,0,0.5,0,1.1c0,0.6,0,1-0.1,1.3c0,0.1-0.1,0.2-0.2,0.2c-0.1,0-0.2-0.3-0.1-0.8c0-0.5,0-1-0.1-1.4l-0.2-0.6
			c-0.1-0.4-0.3-0.5-0.5-0.3c-0.2,0.2-0.4,0.3-0.4,0.3c-0.3,0.5-0.8,1.1-1.2,2c-0.5,0.9-0.9,1.8-1.4,2.8c-0.4,1-0.8,1.9-1.1,2.8
			c-0.3,0.9-0.4,1.6-0.4,2c0,0.6,0.2,1.1,0.6,1.4c0.4,0.3,1,0.4,1.6,0.2c0.5-0.2,1.3-0.7,2.4-1.5c1.1-0.8,2.1-1.7,3.3-2.6
			c1.1-0.9,2.1-1.8,2.9-2.5c0.8-0.8,1.3-1.2,1.4-1.2c0.2-0.1,0.3-0.1,0.4-0.1c0.1,0.1,0.1,0.2-0.1,0.3c-0.2,0.2-0.8,0.7-1.6,1.5
			c-0.9,0.8-1.8,1.6-2.8,2.4s-2,1.7-3,2.4c-1,0.8-1.7,1.2-2.2,1.4c-0.5,0.2-1,0.2-1.5,0.2C211.2,50.7,210.8,50.6,210.5,50.5z"/>
		<path class="st1" d="M232.7,42.6c0.3-0.2,0.6-0.3,0.9-0.3c0.3,0,0.1,0.2-0.6,0.6c-0.7,0.5-1.5,0.7-2.6,0.7c-1,0-1.9-0.6-2.7-1.7
			c-0.4-0.5-0.6-0.7-0.6-0.8c0.1,0.5,0,1.2-0.2,2.1c-0.2,1-0.4,1.7-0.6,2.1c-0.5,1.2-1.2,2.3-2,3.2c-0.8,0.9-1.6,1.4-2.2,1.3
			c-0.1,0-0.2,0-0.4-0.1c-0.2-0.1-0.4-0.3-0.6-0.6c-0.3-0.7-0.4-1.7-0.2-2.8c0.2-1.1,0.6-2.2,1.1-3.3c0.5-1.1,1-2,1.6-2.8
			c0.6-0.8,1.2-1.2,1.7-1.2c0.8-0.1,1.6,0.6,2.5,2c0.8,1.3,1.6,2,2.3,2.1C230.9,43.2,231.8,43,232.7,42.6z M226.3,44.2
			c0.2-0.6,0.3-1.1,0.3-1.5c0.1-0.4,0.1-0.7,0.1-1.1c-0.1-0.5-0.1-0.9-0.3-1.3c-0.1-0.4-0.2-0.6-0.3-0.6c-0.2,0-0.5,0.2-0.9,0.7
			c-0.4,0.5-0.8,1-1.1,1.6c-1,1.5-1.6,2.9-2,4.2c-0.4,1.3-0.4,2.3-0.1,2.9c0.1,0.3,0.3,0.4,0.5,0.4c0.2,0,0.6-0.3,1.1-0.7
			c0.6-0.6,1.2-1.3,1.6-2C225.7,46.1,226,45.2,226.3,44.2z"/>
		<path class="st1" d="M260.8,23c0.5-0.3,0.9-0.5,1.1-0.6c0.2,0,0.1,0.1-0.2,0.5c-1.1,1-3.3,1.7-6.6,2.2c-1.2,0.2-2.6,0.3-4.1,0.3
			c-1.5,0-2.8-0.1-3.8-0.3c-0.6-0.1-1.5-0.3-2.5-0.6c-1-0.3-2.1-0.6-3.2-0.9c-0.1,0.2-0.2,0.4-0.3,0.6c-0.1,0.2-0.2,0.4-0.3,0.6
			c-1.9,4.1-3.6,8.1-5.1,12.1c-1.5,3.9-2.8,7.8-3.9,11.6c-0.9,3.2-1.6,5.7-2,7.6c-0.4,1.9-0.6,3.3-0.7,4.3c-0.1,0.9,0,1.6,0.3,2.1
			c0.2,0.6,0.5,0.9,0.9,0.9c0.3,0,0.7-0.3,1.2-0.8c0.5-0.5,1.1-1.2,1.7-1.8c0.6-0.8,1.4-1.9,2.4-3.4c1-1.5,2-3,3-4.7
			c1.1-1.7,2.1-3.3,3.1-4.9c1-1.6,1.8-3,2.5-4.2c0.5-1,0.8-1.5,1-1.5c0.1,0,0.1,0,0.2,0.1c0,0.1-0.2,0.5-0.7,1.2
			c-0.5,0.8-1,1.7-1.6,2.7c-0.6,1-1.2,2-1.8,3c-0.6,1-1.1,1.8-1.5,2.4c-0.6,1-1.3,2-2.1,3.2c-0.7,1.2-1.5,2.3-2.2,3.3
			c-0.7,1-1.3,1.9-1.9,2.7c-0.5,0.7-0.9,1.2-1.2,1.5c-0.4,0.5-0.8,0.9-1.3,1.1c-0.3,0.2-0.7,0.3-1.1,0.3c-0.4,0-0.7-0.1-1-0.3
			c-1.3-0.7-1.2-4.1,0.3-10c1.3-5.4,2.9-10.5,4.6-15.3c1.8-4.9,3.9-9.8,6.5-14.9l-1-0.3c-1.7-0.6-3.3-1.1-4.8-1.5
			c-1.5-0.4-2.8-0.6-3.8-0.6c-2.9-0.2-4.7,0.3-5.5,1.5c-0.6,0.9-0.6,2-0.2,3.4c0.1,0.3,0.2,0.5,0.2,0.7c0,0.2,0,0.3,0,0.3
			c0,0.1-0.1,0-0.3-0.3c-0.2-0.2-0.4-0.7-0.6-1.3c-0.2-0.6-0.3-1.1-0.2-1.5c0.1-1.2,0.8-2.1,2-2.7c1-0.5,2.6-0.6,4.8-0.4
			c0.8,0.1,1.5,0.1,2,0.2c0.5,0.1,1.3,0.3,2.5,0.6c0.7,0.2,1.5,0.4,2.4,0.6c0.8,0.3,1.5,0.5,2,0.6l0.8,0.3l2.3-4.5
			c0.6-1.1,1.1-2.1,1.5-2.8c0.4-0.7,0.7-1.3,0.9-1.6c0.3-0.4,0.5-0.6,0.6-0.7c0.1-0.1,0.3-0.2,0.4-0.2c0.3,0,0.4,0.1,0.3,0.3
			c-0.2,0.3-0.3,0.5-0.3,0.5c-0.1,0-0.2,0.3-0.6,0.9c-0.3,0.6-0.7,1.3-1.2,2.2c-0.5,0.9-1,1.9-1.5,3c-0.5,1.1-1.1,2.1-1.6,3.2
			c3.6,1.2,6.4,1.9,8.3,2c1.2,0.1,2.7,0,4.4-0.2c1.7-0.3,3.2-0.6,4.4-0.9c0.3-0.1,0.6-0.3,1-0.5C260.3,23.2,260.6,23.1,260.8,23z"/>
		<path class="st1" d="M273.1,23c0.5-0.3,0.9-0.5,1.1-0.6c0.2,0,0.1,0.1-0.2,0.5c-1.1,1-3.3,1.7-6.6,2.2c-1.2,0.2-2.6,0.3-4.1,0.3
			c-1.5,0-2.8-0.1-3.8-0.3c-0.6-0.1-1.5-0.3-2.5-0.6c-1-0.3-2.1-0.6-3.2-0.9c-0.1,0.2-0.2,0.4-0.3,0.6c-0.1,0.2-0.2,0.4-0.3,0.6
			c-1.9,4.1-3.6,8.1-5.1,12.1c-1.5,3.9-2.8,7.8-3.9,11.6c-0.9,3.2-1.6,5.7-2,7.6c-0.4,1.9-0.6,3.3-0.7,4.3c-0.1,0.9,0,1.6,0.3,2.1
			c0.2,0.6,0.5,0.9,0.9,0.9c0.3,0,0.7-0.3,1.2-0.8c0.5-0.5,1.1-1.2,1.7-1.8c0.6-0.8,1.4-1.9,2.4-3.4c1-1.5,2-3,3-4.7
			c1.1-1.7,2.1-3.3,3.1-4.9c1-1.6,1.8-3,2.5-4.2c0.5-1,0.8-1.5,1-1.5c0.1,0,0.1,0,0.2,0.1c0,0.1-0.2,0.5-0.7,1.2
			c-0.5,0.8-1,1.7-1.6,2.7c-0.6,1-1.2,2-1.8,3c-0.6,1-1.1,1.8-1.5,2.4c-0.6,1-1.3,2-2.1,3.2c-0.7,1.2-1.5,2.3-2.2,3.3
			c-0.7,1-1.3,1.9-1.9,2.7c-0.5,0.7-0.9,1.2-1.2,1.5c-0.4,0.5-0.8,0.9-1.3,1.1c-0.3,0.2-0.7,0.3-1.1,0.3c-0.4,0-0.7-0.1-1-0.3
			c-1.3-0.7-1.2-4.1,0.3-10c1.3-5.4,2.9-10.5,4.6-15.3c1.8-4.9,3.9-9.8,6.5-14.9l-1-0.3c-1.7-0.6-3.3-1.1-4.8-1.5
			c-1.5-0.4-2.8-0.6-3.8-0.6c-2.9-0.2-4.7,0.3-5.5,1.5c-0.6,0.9-0.6,2-0.2,3.4c0.1,0.3,0.2,0.5,0.2,0.7c0,0.2,0,0.3,0,0.3
			c0,0.1-0.1,0-0.3-0.3c-0.2-0.2-0.4-0.7-0.6-1.3c-0.2-0.6-0.3-1.1-0.2-1.5c0.1-1.2,0.8-2.1,2-2.7c1-0.5,2.6-0.6,4.8-0.4
			c0.8,0.1,1.5,0.1,2,0.2c0.5,0.1,1.3,0.3,2.5,0.6c0.7,0.2,1.5,0.4,2.4,0.6c0.8,0.3,1.5,0.5,2,0.6l0.8,0.3l2.3-4.5
			c0.6-1.1,1.1-2.1,1.5-2.8c0.4-0.7,0.7-1.3,0.9-1.6c0.3-0.4,0.5-0.6,0.6-0.7c0.1-0.1,0.3-0.2,0.4-0.2c0.3,0,0.4,0.1,0.3,0.3
			c-0.2,0.3-0.3,0.5-0.3,0.5c-0.1,0-0.2,0.3-0.6,0.9c-0.3,0.6-0.7,1.3-1.2,2.2c-0.5,0.9-1,1.9-1.5,3c-0.5,1.1-1.1,2.1-1.6,3.2
			c3.6,1.2,6.4,1.9,8.3,2c1.2,0.1,2.7,0,4.4-0.2c1.7-0.3,3.2-0.6,4.4-0.9c0.3-0.1,0.6-0.3,1-0.5C272.5,23.2,272.8,23.1,273.1,23z"/>
		<path class="st1" d="M310.3,29.1c0.5,0.6,0.8,1.3,1,2.3c0.2,1,0.3,2.1,0.2,3.3c-0.1,1.2-0.3,2.6-0.6,4c-0.3,1.4-0.8,2.9-1.4,4.4
			c-0.9,2.4-2,4.6-3.4,6.7c-1.3,2.1-2.8,3.9-4.4,5.5c-1.6,1.6-3.3,3-5.1,4.2c-1.8,1.1-3.6,1.9-5.5,2.4c-0.5,0.1-1.1,0.2-1.9,0.3
			c-0.8,0.1-1.5,0.1-2.1,0.1c-0.3,0-0.6,0-0.9,0c-0.3,0-0.5,0-0.8-0.1c-2.9-0.5-5.1-1.6-6.5-3.3c-1.4-1.7-2.2-4.2-2.4-7.5
			c-0.1-0.9,0-2.1,0.3-3.6c0.2-1.5,0.5-2.7,0.8-3.6c0.6-1.9,1.4-3.9,2.5-6c1.1-2.1,2.4-4.1,3.9-6c0.4-0.5,0.6-0.8,0.7-1
			c0.1-0.1,0.1-0.4,0-0.6c-0.1-0.6-0.2-1.2-0.2-1.6c0-0.4,0-0.8,0-1.2c0-0.4,0.1-0.7,0.1-1.1c0-0.4,0.1-0.8,0.2-1.4
			c0.1-0.8,0.2-1.5,0.3-2c0.1-0.5,0.3-1.1,0.5-1.6c0.8-2.2,1.7-4.1,2.7-5.5c1-1.5,2-2.4,3-3c0.4-0.2,0.7-0.3,1-0.3
			c0.6,0,1.1,0.4,1.6,1.1c0.5,0.8,0.8,1.6,0.8,2.4c0,0.8-0.2,1.7-0.6,2.8c-0.2,0.5-0.4,0.9-0.6,1.3c-0.3,0.4-0.6,0.9-0.9,1.5
			c-0.4,0.5-0.8,1.2-1.4,2c-0.5,0.8-1.2,1.7-2.1,2.8l-3.3,4.5c-0.1,0.2-0.1,0.5,0,0.9c0.4,1.3,1.6,3.4,3.6,6.5l2,3l0.3-0.7
			c0.9-1.5,1.9-2.9,2.9-4.3c1-1.4,2-2.6,3-3.8c1-1.2,2-2.2,2.9-3c0.9-0.8,1.7-1.4,2.4-1.8c1.1-0.6,2.1-0.9,3.2-0.9
			c0.7,0,1.4,0.1,1.9,0.3c0.6,0.2,1.1,0.4,1.4,0.6C309.6,28.4,310,28.7,310.3,29.1z M287.1,61.7c0.6,0,1.2,0,1.9-0.1
			c0.7-0.1,1.3-0.1,1.7-0.3c1.4-0.3,2.9-0.9,4.4-1.8c1.5-0.8,3-1.9,4.4-3.1c1.4-1.3,2.7-2.7,4-4.3c1.3-1.6,2.4-3.3,3.4-5.1
			c1.8-3.4,2.9-6.7,3.5-10.1c0.6-3.3,0.4-5.7-0.6-7.2c-0.8-1.3-2-1.9-3.6-1.9c-1.4,0-2.7,0.5-3.9,1.4c-0.3,0.2-0.7,0.5-1.2,1
			c-0.5,0.5-1.1,1.1-1.6,1.6c-2.6,2.6-4.9,5.6-6.9,9l-0.9,1.4l0.7,0.9c0.9,1.3,2,2.2,3.2,2.8c0.4,0.2,0.7,0.3,0.9,0.3
			c0.2,0.1,0.6,0.1,1,0.1h0.3c0.5,0,0.8,0,1-0.1c0.2-0.1,0.5-0.2,1-0.5c0.6-0.3,1.3-0.8,2-1.5c0.7-0.7,1.3-1.3,1.7-1.9
			c1-1.7,1.3-3.3,0.9-5.1c-0.1-0.5-0.2-0.7-0.2-0.8c0-0.1,0-0.1,0.1-0.1v-0.1h0.1c0.1,0,0.2,0.1,0.3,0.3c0.2,0.3,0.4,0.7,0.4,1.3
			c0.1,0.6,0,1.2-0.1,1.8c-0.1,0.6-0.1,1-0.2,1.2c-0.1,0.2-0.2,0.6-0.4,1c-0.3,0.6-0.8,1.2-1.5,2c-0.7,0.7-1.3,1.3-1.8,1.7
			c-1.3,0.9-2.5,1.3-3.4,1.3c-1.9,0-3.8-1.1-5.7-3.3c-0.3-0.3-0.5-0.6-0.6-0.7c-0.1,0.3-0.4,0.9-0.8,1.8c-0.4,0.9-0.8,1.6-1,2.2
			c-0.3,0.7-0.5,1.1-0.6,1.3c-0.1,0.2-0.2,0.3-0.3,0.3l-0.2-0.1c-0.1-0.1,0-0.3,0.2-0.9c0.2-0.5,0.4-1.1,0.7-1.7
			c0.3-0.6,0.5-1.2,0.8-1.8c0.3-0.5,0.4-0.9,0.5-1l0.3-0.8l-2.1-3.3c-1-1.6-1.8-2.9-2.4-3.8c-0.5-0.9-1-1.8-1.2-2.6l-0.2-0.5
			l-0.2,0.3c-0.2,0.2-0.4,0.5-0.6,0.9c-0.3,0.4-0.5,0.9-0.9,1.4c-0.3,0.5-0.6,1-0.9,1.5c-0.3,0.5-0.6,1-0.8,1.4
			c-0.6,1.1-1.2,2.1-1.6,3.2c-0.4,1-0.8,2-1.2,3c-0.3,0.7-0.5,1.4-0.6,1.8c-0.1,0.5-0.2,1.3-0.4,2.4c-0.1,1-0.2,1.7-0.3,2.3
			c-0.1,0.5-0.1,1.1,0,1.6c0.2,3.1,0.9,5.4,2.3,6.9c1.4,1.5,3.5,2.5,6.4,3H287.1z M294.2,16.8c0.1-0.6-0.1-1.4-0.5-2.2
			c-0.4-0.8-0.8-1.3-1.2-1.4l-0.2-0.1c-0.7,0-1.5,0.6-2.5,1.7c-1,1.1-1.8,2.5-2.6,4.1c-1.3,2.9-2.1,5.6-2.2,8.1
			c-0.1,0.5-0.1,1.1,0,1.8c0,0.7,0.1,1.1,0.1,1.4c0.3-0.3,1-1.2,2.1-2.7c1-1.4,1.9-2.5,2.5-3.3c0.7-0.8,1.2-1.5,1.5-2
			c0.4-0.5,0.7-0.9,0.9-1.2c0.2-0.3,0.4-0.6,0.6-0.9c0.3-0.6,0.6-1.3,0.9-1.9C294,17.6,294.2,17.2,294.2,16.8z"/>
		<path class="st1" d="M356.6,42.1c0.3-0.3,0.5-0.4,0.7-0.3c0.2,0.1-0.1,0.4-0.8,1c-1.1,1.1-2.4,2.2-3.9,3.3c-1.5,1.1-3,2-4.6,2.7
			c-1,0.5-1.8,0.8-2.6,1c-0.8,0.2-1.9,0.5-3.4,0.9c-0.7,0.1-1.3,0.2-1.8,0.4c-0.5,0.1-0.8,0.2-0.8,0.2c-0.1,0.1-0.2,0.4-0.5,1.1
			c-0.3,0.7-0.5,1.5-0.8,2.4c-1.4,3.9-2.8,7.6-4.4,11.1c-1.5,3.5-2.9,6.4-4.2,8.6c-1,1.8-2.3,3.3-3.7,4.6c-1.4,1.3-2.8,2.1-4.1,2.4
			c-0.5,0.1-1,0.2-1.8,0.2c-0.7,0-1.3-0.1-1.8-0.2c-0.8-0.2-1.5-0.7-2-1.4c-0.5-0.7-0.9-1.5-1.2-2.6c-0.3-1-0.4-2.2-0.3-3.5
			c0.1-1.3,0.3-2.6,0.7-4c0.6-2.3,1.3-4.2,2.2-5.6c0.9-1.5,2.2-3,3.9-4.6c1-0.9,1.8-1.6,2.6-2.2c0.8-0.5,1.8-1.2,3.1-1.8
			c2-1.1,3.7-1.9,5-2.5c1.3-0.6,2.5-1.1,3.7-1.4c0.9-0.3,1.5-0.5,1.8-0.6c0.3-0.1,0.5-0.3,0.6-0.4c0.1-0.2,0.2-0.8,0.6-1.8
			c0.3-0.9,0.7-2.1,1.1-3.4c0.4-1.3,0.8-2.7,1.3-4.3c0.5-1.5,0.9-3,1.4-4.5c0.4-1.4,0.8-2.7,1.2-3.9c0.3-1.1,0.6-2,0.8-2.6
			c0.8-2.6,1.6-5,2.3-7.2c0.7-2.1,1.5-4.4,2.4-6.6c0.3-0.6,0.6-1.3,0.8-2c0.3-0.7,0.5-1.3,0.6-1.9c-0.7,1.2-1.5,2.4-2.4,3.6
			c-0.9,1.2-1.8,2.2-2.6,3.1c-0.5,0.5-1.1,1-1.8,1.6c-0.7,0.6-1.5,1.2-2.4,1.9c-0.9,0.7-1.7,1.3-2.6,1.9c-0.9,0.6-1.7,1.2-2.4,1.6
			c-1,0.6-1.8,1.2-2.5,1.7c-0.7,0.5-1.4,1-2,1.4c-0.6,0.4-1.2,0.9-1.7,1.3c-0.5,0.5-1.1,1-1.6,1.5c-1.2,1.1-2.2,2.2-3,3.1
			c-0.8,0.9-1.5,1.8-2,2.6c-0.3,0.6-0.7,1.3-1,2.2c-0.3,0.9-0.5,1.7-0.5,2.3c-0.1,1,0,2.1,0.4,3.2c0.4,1.1,0.9,2.1,1.7,2.9
			c0.8,0.9,1.1,1.4,0.8,1.4c-0.1,0-0.2,0-0.3-0.1c-0.1-0.1-0.2-0.1-0.2-0.2c0-0.1-0.1-0.1-0.2-0.3c-1-0.7-1.7-1.7-2.2-3
			c-0.5-1.2-0.7-2.6-0.6-4c0.1-1.7,0.7-3.3,1.7-4.9c1-1.6,2.6-3.5,4.8-5.5c0.6-0.5,1.1-1,1.6-1.4c0.5-0.4,1-0.9,1.6-1.3
			c0.6-0.5,1.3-0.9,2.1-1.5c0.8-0.5,1.7-1.1,2.8-1.9c2.6-1.7,4.8-3.4,6.8-5.1c2-1.7,3.5-3.2,4.5-4.6c0.8-1,1.5-2,2.2-3.1
			c0.7-1.1,1.2-2,1.5-2.8l0.3-0.5c0.1-0.2,0.1-0.5,0.1-0.7c0.2-0.6,0.5-0.6,0.7,0c0.3,0.7-0.4,3.4-2.1,7.9c-0.8,2-1.6,4.1-2.4,6.4
			c-0.8,2.3-1.5,4.6-2.3,7c-0.1,0.5-0.3,1.1-0.6,2c-0.3,0.9-0.6,1.8-0.9,2.9c-0.3,1.1-0.7,2.2-1.1,3.3c-0.4,1.2-0.7,2.3-1.1,3.5
			c-0.7,2.3-1.3,4.2-1.8,5.9c-0.5,1.6-0.7,2.5-0.7,2.5c1.1-0.2,2.1-0.4,2.8-0.6c0.7-0.2,1.4-0.4,2.1-0.6c0.7-0.2,1.1-0.4,1.4-0.5
			c2-0.8,4-1.9,6-3.2C353.9,44.6,355.5,43.3,356.6,42.1z M334.8,60.9c0.3-0.8,0.7-1.7,1.1-2.8c0.4-1.1,0.7-2.1,1.1-3
			c0.3-0.9,0.7-2.1,1.1-3.5c0-0.1-0.2,0-0.6,0.1c-0.4,0.1-0.8,0.3-1.2,0.4c-0.7,0.2-1.5,0.6-2.6,1c-1,0.4-2.1,0.9-3.1,1.5
			c-1.1,0.5-2.1,1.1-3.1,1.6c-1,0.5-1.9,1-2.6,1.5c-0.4,0.3-0.9,0.7-1.5,1.2c-0.6,0.5-1.1,1-1.7,1.5c-0.6,0.5-1.1,1.1-1.6,1.6
			c-0.5,0.5-0.9,1-1.2,1.4c-0.6,0.8-1.1,1.6-1.5,2.4c-0.4,0.8-0.8,1.9-1.2,3.2c-0.7,2.1-1,4-1,5.8c0,1.8,0.4,3.4,1.2,4.6
			c0.5,1,1.3,1.6,2.4,1.8c1.1,0.2,2.2,0.1,3.4-0.5c1-0.5,2-1.3,3.2-2.4c1.2-1.2,2.2-2.4,3-3.6c0.4-0.7,0.9-1.5,1.4-2.6
			c0.5-1,1-2.1,1.6-3.3c0.5-1.2,1.1-2.5,1.7-3.8C333.7,63.6,334.3,62.2,334.8,60.9z"/>
		<path class="st1" d="M366.5,42.6c0.3-0.2,0.6-0.3,0.9-0.3c0.3,0,0.1,0.2-0.6,0.6c-0.7,0.5-1.5,0.7-2.6,0.7c-1,0-1.9-0.6-2.7-1.7
			c-0.4-0.5-0.6-0.7-0.6-0.8c0.1,0.5,0,1.2-0.2,2.1c-0.2,1-0.4,1.7-0.6,2.1c-0.5,1.2-1.2,2.3-2,3.2c-0.8,0.9-1.6,1.4-2.2,1.3
			c-0.1,0-0.2,0-0.4-0.1c-0.2-0.1-0.4-0.3-0.6-0.6c-0.3-0.7-0.4-1.7-0.2-2.8c0.2-1.1,0.6-2.2,1.1-3.3c0.5-1.1,1-2,1.6-2.8
			c0.6-0.8,1.2-1.2,1.7-1.2c0.8-0.1,1.6,0.6,2.5,2c0.8,1.3,1.6,2,2.3,2.1C364.7,43.2,365.5,43,366.5,42.6z M360.1,44.2
			c0.2-0.6,0.3-1.1,0.3-1.5c0.1-0.4,0.1-0.7,0.1-1.1c-0.1-0.5-0.1-0.9-0.3-1.3c-0.1-0.4-0.2-0.6-0.3-0.6c-0.2,0-0.5,0.2-0.9,0.7
			c-0.4,0.5-0.8,1-1.1,1.6c-1,1.5-1.6,2.9-2,4.2c-0.4,1.3-0.4,2.3-0.1,2.9c0.1,0.3,0.3,0.4,0.5,0.4c0.2,0,0.6-0.3,1.1-0.7
			c0.6-0.6,1.2-1.3,1.6-2C359.4,46.1,359.8,45.2,360.1,44.2z"/>
		<path class="st1" d="M375,42.4c0.1-0.2,0.2-0.4,0.4-0.4c0.1,0,0.2,0,0.2,0.2c0,0.2-0.3,0.6-0.8,1.1c-0.5,0.5-1.2,1.1-1.9,1.7
			c-0.8,0.6-1.6,1.2-2.5,1.8c-0.9,0.6-1.8,1.2-2.6,1.6l-1.1,0.7V52c0.1,1,0,2.2-0.2,3.4c-0.2,1.3-0.4,2.1-0.7,2.7
			c-0.5,1-1.1,1.6-1.9,1.9c-0.3,0.1-0.6,0.2-1,0.2c-0.4,0-0.7-0.1-1-0.2c-0.7-0.3-1.2-1-1.4-2.2c-0.2-1.2,0-2.4,0.4-3.6
			c0.3-0.9,0.9-1.7,1.5-2.5c0.7-0.8,1.5-1.5,2.4-2c0.3-0.3,0.6-0.5,0.6-0.6c0.1-0.1,0.1-0.2,0.1-0.5c-0.1-1.1-0.2-1.9-0.1-2.6
			c0-0.6,0.1-1.3,0.3-1.9c0.3-1.1,0.6-2.3,1.1-3.3c0.4-1.1,0.8-1.8,1.2-2.2c0.2-0.2,0.5-0.3,0.9-0.3c0.3-0.1,0.5,0,0.5,0.2
			c0,0.1-0.1,0.2-0.2,0.3c-0.1,0.1-0.2,0.3-0.3,0.6c-0.3,0.5-0.7,1.2-1.2,2.3c-0.5,1.1-0.8,2-0.9,2.8c-0.2,0.7-0.3,1.5-0.3,2.4
			c-0.1,0.9,0,1.4,0.1,1.5c0.3,0,0.9-0.3,1.8-0.8c0.8-0.5,1.7-1.1,2.6-1.8c0.9-0.7,1.8-1.3,2.5-2C374.3,43.3,374.8,42.8,375,42.4z
			 M364.3,59.2c0.6-0.5,1.1-1.4,1.4-2.6c0.3-1.2,0.4-2.7,0.3-4.5c-0.1-1-0.1-1.6-0.1-1.9c0-0.3-0.1-0.4-0.2-0.3
			c-0.2,0.1-0.5,0.2-0.9,0.5c-0.3,0.3-0.7,0.6-1,0.9c-0.3,0.3-0.7,0.7-0.9,1c-0.3,0.3-0.5,0.6-0.6,0.9c-0.6,1.1-1,2.2-1.1,3.3
			c-0.1,1.1,0.2,2,0.7,2.7C362.5,60,363.3,60.1,364.3,59.2z"/>
		<path class="st1" d="M386,42.4c0.1,0.2-1,1.5-3.3,3.7c-0.9,0.9-1.6,1.5-2.2,2.1s-1.1,0.9-1.5,1.2c-0.4,0.3-0.8,0.5-1.2,0.6
			c-0.4,0.1-0.8,0.2-1.3,0.2c-0.7,0.1-1.2,0-1.6-0.3c-0.3-0.2-0.6-0.3-0.8-0.5c-0.2-0.2-0.3-0.5-0.4-0.9c-0.1-0.4-0.1-1,0-1.8
			c0.1-0.8,0.3-1.6,0.6-2.3c0.2-0.6,0.6-1.4,1.2-2.3c0.5-0.9,1-1.6,1.4-2c0.7-0.7,1.4-1,2.2-1c0.9,0,1.3,0.4,1.3,1.3
			c-0.1,0.3-0.2,0.7-0.5,1.1c-0.3,0.5-0.6,0.9-1.1,1.4c-0.4,0.5-0.9,1-1.4,1.4c-0.5,0.5-1,0.8-1.5,1.1l-0.6,0.4L375,47
			c-0.1,1.4,0.2,2.3,0.9,2.7c0.7,0.3,1.6,0.2,2.7-0.5c1.1-0.7,2.8-2.1,4.9-4.2c0.4-0.4,0.8-0.8,1.2-1.2c0.4-0.4,0.6-0.6,0.7-0.8
			C385.7,42.5,386,42.4,386,42.4z M375.2,44.7c-0.1,0.3-0.1,0.4,0,0.5c0,0,0.1,0,0.3-0.1c0.1-0.1,0.3-0.2,0.6-0.5
			c0.3-0.3,0.6-0.5,0.9-0.8c0.7-0.6,1.3-1.3,1.8-1.9c0.5-0.7,0.8-1.2,0.8-1.5c0.1-0.7-0.1-1.1-0.8-1.1c-0.2,0-0.5,0.2-0.9,0.5
			c-0.3,0.3-0.7,0.8-1,1.3c-0.3,0.5-0.7,1.1-1,1.8C375.6,43.5,375.4,44.1,375.2,44.7z"/>
		<path class="st1" d="M402.5,16.2c0.1,0.1,0.2,0.3,0.2,0.6c0,0.3-0.1,1-0.2,2c-0.1,0.7-0.2,1.3-0.3,1.8c-0.1,0.5-0.2,1-0.4,1.5
			c-0.2,0.5-0.4,1.1-0.6,1.7c-0.3,0.6-0.6,1.3-1,2.1c-2.1,4.2-4.8,7.8-8,10.7c-0.3,0.3-0.6,0.6-1.1,0.9c-0.4,0.3-0.9,0.7-1.3,1
			c-0.4,0.3-0.8,0.6-1.2,0.8c-0.3,0.2-0.6,0.3-0.7,0.3c-0.1,0.1-0.3,0.5-0.7,1.4c-0.3,0.9-0.7,1.9-1.1,3c-0.4,1.1-0.7,2.1-1,3
			c-0.3,0.9-0.4,1.4-0.3,1.5c2,0.8,4.2,0.6,6.7-0.6c2.5-1.2,4.8-3.1,7-5.7c0.1-0.1,0.3-0.2,0.5-0.1c0.2,0,0.2,0.2,0,0.5
			c-0.7,0.9-1.6,1.8-2.7,2.7c-1.1,0.9-2.2,1.8-3.4,2.4c-1.2,0.7-2.5,1.2-3.9,1.5c-1.4,0.3-2.8,0.2-4.3-0.2c0,0.2,0,0.5,0.1,0.7
			c0.1,0.2,0.1,0.5,0.2,0.8c0.1,0.3,0.1,0.6,0.3,0.9c0.5,1.9,0.7,3.7,0.7,5.6c0,1.8-0.2,3.8-0.7,6c-0.4,2.2-1,3.7-1.8,4.3
			c-0.7,0.6-1.3,0.7-1.9,0.3c-0.7-0.5-1-2-0.9-4.6c0.1-2.6,0.7-5.9,1.6-9.7c1.5-6.5,3.8-12.6,6.8-18.6c2.6-5.1,4.9-9.4,6.9-12.7
			c2.1-3.3,3.6-5.3,4.6-5.8C401.4,15.8,402.1,15.8,402.5,16.2z M385.1,55.8c0-0.5,0-1-0.1-1.6c-0.1-0.6-0.2-1.2-0.3-1.8
			c-0.1-0.5-0.2-1-0.3-1.3c-0.1-0.3-0.2-0.5-0.3-0.4c-0.1,0.1-0.1,0.3-0.3,0.8c-0.1,0.5-0.3,1-0.4,1.7c-0.9,3.4-1.4,6.3-1.7,8.6
			c-0.3,2.3-0.2,4,0,4.9c0.2,0.4,0.3,0.6,0.5,0.6c0.2,0,0.4-0.2,0.8-0.6c0.5-0.6,0.8-1.4,1.1-2.5c0.3-1.1,0.5-2.5,0.7-4.4
			c0.1-0.7,0.2-1.4,0.2-2.2C385.1,56.8,385.1,56.2,385.1,55.8z M398.3,28.4c1.1-1.8,1.9-3.6,2.5-5.2c0.6-1.6,1-3.1,1.2-4.5
			c0.1-1.1,0.1-1.9-0.1-2.2c-0.2-0.3-0.5-0.3-0.9,0c-0.6,0.4-1.5,1.5-2.7,3.4c-1.2,1.9-2.5,4-3.8,6.4c-0.8,1.5-1.6,3.1-2.4,4.6
			c-0.8,1.5-1.5,2.9-2.1,4.2c-0.6,1.3-1.1,2.3-1.4,3c-0.3,0.8-0.5,1.2-0.4,1.2c0.1,0,0.2-0.1,0.5-0.3c0.3-0.2,0.6-0.5,1-0.8
			c1.7-1.2,3.2-2.7,4.8-4.5C396,32,397.3,30.2,398.3,28.4z"/>
		<path class="st1" d="M397.6,49.2c-0.3-0.2-0.5-0.6-0.5-1c-0.1-0.7,0-1.8,0.4-3.3c0.4-1.5,1-3.1,1.7-4.7c0.5-1,0.8-1.6,0.9-1.8
			c0.1-0.2,0.4-0.3,0.6-0.3c0.3,0,0.4,0.1,0.3,0.3c-0.5,0.8-0.9,1.8-1.4,3c-0.5,1.2-1,2.6-1.4,4.3c-0.1,0.2-0.1,0.5-0.2,0.8
			c-0.1,0.3-0.1,0.6-0.1,0.9c0,1.5,0.5,2,1.4,1.5c0.9-0.5,2.4-1.9,4.4-4.5c0.5-0.5,0.9-1,1.2-1.5c0.3-0.5,0.5-0.7,0.6-0.7
			c0.1,0,0.1,0.1,0,0.3c-0.1,0.2-0.6,0.8-1.2,1.7c-0.9,1.1-1.7,2.1-2.4,2.9c-0.8,0.8-1.4,1.3-1.8,1.6c-0.5,0.3-0.9,0.5-1.4,0.5
			C398.1,49.6,397.8,49.5,397.6,49.2z M402.2,36c0,0.2-0.1,0.3-0.4,0.3c-0.3,0-0.4-0.1-0.4-0.3c0-0.3,0.1-0.4,0.4-0.4
			C402,35.6,402.2,35.7,402.2,36z"/>
		<path class="st1" d="M412.4,41c0.6-1.5,1.1-2.6,1.3-3.2c0.2-0.7,0.3-1,0.2-1.2c-0.1-0.1-0.5,0.2-1.1,0.9c-0.6,0.6-1.3,1.4-2.1,2.4
			c-0.8,1-1.6,2-2.4,3.1c-0.8,1.1-1.4,2-1.9,2.7c-0.2,0.3-0.4,0.7-0.6,1.1c-0.3,0.4-0.4,0.7-0.6,1c-0.2,0.3-0.4,0.6-0.4,1
			c-0.1,0.4-0.2,0.6-0.5,0.6c-0.3,0-0.4-0.1-0.4-0.4c0-0.3,0.1-0.9,0.3-1.8c0.1-0.4,0.2-0.9,0.3-1.6c0.2-0.7,0.4-1.4,0.6-2.1
			c0.2-0.7,0.4-1.4,0.6-2.1c0.2-0.7,0.4-1.2,0.6-1.5c0.3-0.6,0.5-1,0.6-1.2c0.1-0.2,0.3-0.4,0.6-0.5c0.4,0,0.6,0.2,0.5,0.5l-2.3,6.9
			c-0.1,0.3-0.1,0.4-0.1,0.4c0.1,0,0.2-0.2,0.5-0.6c0.3-0.6,0.8-1.3,1.4-2.1c0.6-0.8,1.2-1.6,1.8-2.4c0.6-0.8,1.2-1.5,1.8-2.2
			c0.6-0.7,1.1-1.2,1.5-1.5c0.5-0.4,0.8-0.7,0.9-0.8c0.2-0.1,0.4-0.2,0.6-0.2c0.3,0,0.5,0.2,0.6,0.5c0.1,0.4,0.1,0.9-0.1,1.5
			c-0.2,0.6-0.6,1.7-1.2,3.2c-0.9,2.2-1.6,3.8-2,5c-0.4,1.1-0.7,2-0.9,2.6c-0.2,0.6-0.1,1.1,0.1,1.3c0.2,0.3,0.4,0.4,0.6,0.3
			c0.4-0.2,0.9-0.5,1.5-1.1c0.6-0.5,1.3-1.2,2-1.8c0.7-0.7,1.4-1.4,2.2-2.2c0.7-0.8,1.4-1.5,2.1-2.2c0.3-0.3,0.5-0.6,0.5-0.8
			c0.1-0.2,0.1-0.3,0.3-0.3c0.2,0,0,0.4-0.6,1.3c-0.8,1.1-1.8,2.3-3.1,3.6c-1.3,1.2-2.3,2.2-3.1,3c-0.6,0.5-1.2,0.9-1.7,1.1
			c-0.5,0.2-1,0.2-1.4-0.1c-0.2-0.2-0.4-0.4-0.4-0.8c-0.1-0.4,0-0.9,0.2-1.7c0.2-0.7,0.5-1.7,0.9-2.9C411,44.4,411.6,42.9,412.4,41z
			"/>
		<path class="st1" d="M485.5,52.3c0.7-0.6,1-0.7,1-0.4c0,0.1-0.3,0.4-0.9,0.9c-0.6,0.5-1.2,0.8-1.7,1.1c-0.6,0.3-1.5,0.6-2.6,0.9
			c-1.1,0.3-2.2,0.6-3.3,0.9l-1.5,0.3l-1.1,2.1c-0.7,1.2-1.5,2.6-2.5,4.1c-1,1.5-1.8,2.7-2.4,3.6c-0.7,1-1.7,2.1-2.9,3.3
			c-1.2,1.2-2.2,2.1-3,2.8c-0.8,0.7-1.7,1.3-2.6,1.8c-0.9,0.5-1.7,0.9-2.3,1c-0.5,0.1-1.2,0.2-2,0.2c-0.8,0-1.4,0-1.8-0.2
			c-3.5-1.4-4.9-6-4.1-13.8c0.1-0.6,0.1-1.3,0.2-2.1c0.1-0.8,0.2-1.5,0.3-2c0.1-0.3,0.1-0.5,0.1-0.7c0-0.2,0-0.4,0.1-0.6
			c0-0.2,0-0.4,0.1-0.6c-0.2-0.1-0.7-0.4-1.5-1c-0.7-0.5-1.3-1-1.8-1.5c-0.6-0.6-1.2-1.3-1.8-2.1c-0.6-0.8-1.1-1.6-1.6-2.5
			c-0.5-0.9-1-1.7-1.4-2.6c-0.4-0.9-0.7-1.7-0.9-2.5c-0.1-0.5-0.2-0.7-0.3-0.7c-0.1-0.1-0.3,0-0.6,0.2c-0.3,0.2-0.7,0.4-1.2,0.7
			c-0.5,0.3-0.9,0.6-1.5,1c-0.5,0.4-1,0.8-1.5,1.2c-0.4,0.3-0.8,0.8-1.3,1.2c-0.5,0.5-1,1-1.5,1.5c-0.5,0.5-1,1-1.4,1.5
			c-0.4,0.5-0.8,1-1.1,1.4c-0.7,0.9-1.3,1.9-1.9,2.9c-0.6,1-1.1,2-1.5,3c-0.4,0.9-0.7,1.8-0.9,2.7c-0.2,0.8-0.3,1.5-0.3,2.1
			c0,1,0.2,1.1,0.5,0.5c0.4-0.6,0.6-0.7,0.6-0.4c0,0.2-0.1,0.4-0.4,0.7c-0.3,0.3-0.4,0.5-0.6,0.5c-0.6,0.1-0.8-0.4-0.8-1.5
			c0-1.1,0.4-2.4,1-3.9c0.7-1.8,1.5-3.4,2.6-5c1-1.6,2.3-3.2,3.9-4.8c2.5-2.7,5.1-4.7,7.6-6c0-0.2-0.1-0.7-0.3-1.5
			c-0.7-4-0.7-8.1,0.3-12.2c2.2-9,7.1-16.2,14.9-21.4c1.1-0.7,2.3-1.5,3.6-2.2c1.3-0.7,2.4-1.3,3.2-1.6c1.6-0.7,3.1-1.2,4.4-1.5
			c1.3-0.3,2.8-0.4,4.5-0.4c1-0.1,1.7-0.1,2.1,0c0.4,0.1,0.8,0.1,1.3,0.3c1.5,0.5,3,1.4,4.4,2.5c1.4,1.2,2.5,2.5,3.2,3.9
			c0.9,1.9,1.6,4.6,2.1,8.2c0.1,0.6,0.1,1.3,0.1,2.2c0,0.9,0,1.9,0,2.9c-0.1,1-0.1,2-0.2,2.9c-0.1,0.9-0.1,1.8-0.3,2.4
			c-0.8,4.9-1.9,9.4-3.2,13.7c-1.3,4.3-3.1,8.7-5.3,13.1c-0.2,0.4-0.3,0.7-0.5,1c-0.2,0.3-0.3,0.6-0.4,0.9c-0.2,0.3-0.3,0.6-0.3,0.9
			c0,0.1,0.4,0,1.1-0.2c0.7-0.2,1.5-0.3,2.2-0.5c1.3-0.4,2.4-0.8,3.2-1.2C484.2,53.3,484.9,52.8,485.5,52.3z M477.8,51.9
			c1.3-2.7,2.4-5.2,3.3-7.5c0.9-2.3,1.7-4.9,2.5-7.5c3-10.9,3.5-19.8,1.6-26.7c-1.1-3.7-3.3-6.5-6.7-8.2c-0.7-0.4-1.4-0.7-2.1-0.8
			C475.8,1,475,0.9,474,0.9c-2.5,0-5,0.5-7.3,1.4c-2.4,0.9-5.2,2.5-8.3,4.7c-3.9,2.7-7.2,6.1-9.8,10.2c-2.2,3.5-3.7,7.3-4.5,11.4
			c-0.8,4.1-0.8,8,0,11.7l0.2,0.7l2-0.9c0.5-0.3,1.2-0.6,2.2-1c0.9-0.4,1.8-0.8,2.6-1.1c1.1-0.5,2-0.9,2.9-1.3
			c0.8-0.4,1.6-0.8,2.4-1.2c0.7-0.4,1.5-0.9,2.2-1.4c0.7-0.5,1.5-1.1,2.3-1.7c0.5-0.4,0.9-0.8,1.2-1.1c0.3-0.3,0.7-0.7,1-1.2
			c0.3-0.4,0.6-0.8,0.9-1.2c0.3-0.4,0.6-0.7,0.7-0.9c0.3-0.3,0.5-0.6,0.6-0.6c0.1-0.1,0.3-0.1,0.6-0.1c0.3,0,0.5,0.1,0.5,0.2
			c0,0.1-0.2,0.3-0.5,0.6c-0.3,0.3-0.7,0.7-0.9,1.2c-1.9,2.9-3.6,5.9-5.1,9.1c-1.4,3.1-2.7,6.5-3.7,10.2c-0.5,1.5-0.9,3-1.2,4.4
			c-0.3,1.5-0.5,2.2-0.4,2.4c0.1,0.1,0.3,0.2,0.8,0.4c0.5,0.1,1,0.3,1.5,0.4c0.6,0.1,1.2,0.3,1.8,0.4c0.6,0.1,1.2,0.2,1.6,0.3
			c0.3,0.1,0.9,0.1,1.6,0.1c0.7,0,1.5,0,2.4,0c0.9,0,1.7,0,2.5,0c0.8,0,1.5-0.1,2-0.1c1.1-0.1,2.3-0.2,3.6-0.4
			c1.3-0.1,2.3-0.3,3-0.4l0.9-0.2L477.8,51.9z M453.7,50.7c0.8-3.1,1.8-6.2,3-9.2c1.2-3,2.6-5.9,4.2-8.7c0.1-0.1,0-0.1-0.1,0
			c-0.1,0.1-0.7,0.5-1.7,1.2c-0.7,0.5-1.3,1-1.9,1.3c-0.6,0.4-1.2,0.7-1.9,1.1c-0.7,0.3-1.5,0.7-2.4,1.1c-0.9,0.4-2.2,0.9-3.6,1.5
			c-3.4,1.4-5.1,2.2-5.1,2.4c0,0.2,0.1,0.6,0.4,1.4c0.7,2.3,1.7,4.4,3,6.2c1.2,1.9,2.6,3.4,4.2,4.5l1,0.7l0.1-0.5L453.7,50.7z
			 M474.7,57.9c0.1-0.2,0.2-0.5,0.4-0.7c0.1-0.2,0.3-0.4,0.4-0.6l0.3-0.5c-0.1,0.1-0.1,0.1-0.3,0.1H475c-0.4,0.1-0.9,0.2-1.6,0.3
			c-0.7,0.1-1.4,0.2-2.2,0.3c-0.8,0.1-1.6,0.2-2.4,0.2c-0.8,0.1-1.5,0.1-2.1,0.2c-2.2,0.1-4.1,0.1-5.7,0c-1.6-0.1-3.2-0.4-4.8-0.9
			l-2-0.6l-0.2,0.9c-0.5,2.5-0.7,4.9-0.9,7.3c-0.1,2.3,0,4.2,0.3,5.7c0.2,1,0.7,2,1.3,2.9c0.6,0.9,1.3,1.5,1.9,1.8
			c0.3,0.2,0.8,0.3,1.3,0.3c0.5,0,1.1,0,1.6-0.2c1.5-0.5,3.2-1.5,5.1-3c1.9-1.6,3.7-3.4,5.4-5.6c0.6-0.9,1.4-2,2.4-3.4
			C473.2,60.6,474,59.2,474.7,57.9z"/>
		<path class="st1" d="M494.4,41c0.6-1.5,1.1-2.6,1.3-3.2c0.2-0.7,0.3-1,0.2-1.2c-0.1-0.1-0.5,0.2-1.1,0.9c-0.6,0.6-1.3,1.4-2.1,2.4
			c-0.8,1-1.6,2-2.4,3.1c-0.8,1.1-1.4,2-1.9,2.7c-0.2,0.3-0.4,0.7-0.6,1.1c-0.3,0.4-0.4,0.7-0.6,1c-0.2,0.3-0.4,0.6-0.4,1
			c-0.1,0.4-0.2,0.6-0.5,0.6c-0.3,0-0.4-0.1-0.4-0.4c0-0.3,0.1-0.9,0.3-1.8c0.1-0.4,0.2-0.9,0.3-1.6c0.2-0.7,0.4-1.4,0.6-2.1
			c0.2-0.7,0.4-1.4,0.6-2.1c0.2-0.7,0.4-1.2,0.6-1.5c0.3-0.6,0.5-1,0.6-1.2c0.1-0.2,0.3-0.4,0.6-0.5c0.4,0,0.6,0.2,0.5,0.5l-2.3,6.9
			c-0.1,0.3-0.1,0.4-0.1,0.4c0.1,0,0.2-0.2,0.5-0.6c0.3-0.6,0.8-1.3,1.4-2.1c0.6-0.8,1.2-1.6,1.8-2.4c0.6-0.8,1.2-1.5,1.8-2.2
			c0.6-0.7,1.1-1.2,1.5-1.5c0.5-0.4,0.8-0.7,0.9-0.8c0.2-0.1,0.4-0.2,0.6-0.2c0.3,0,0.5,0.2,0.6,0.5c0.1,0.4,0.1,0.9-0.1,1.5
			c-0.2,0.6-0.6,1.7-1.2,3.2c-0.9,2.2-1.6,3.8-2,5c-0.4,1.1-0.7,2-0.9,2.6c-0.2,0.6-0.1,1.1,0.1,1.3c0.2,0.3,0.4,0.4,0.6,0.3
			c0.4-0.2,0.9-0.5,1.5-1.1c0.6-0.5,1.3-1.2,2-1.8c0.7-0.7,1.4-1.4,2.2-2.2c0.7-0.8,1.4-1.5,2.1-2.2c0.3-0.3,0.5-0.6,0.5-0.8
			c0.1-0.2,0.1-0.3,0.3-0.3c0.2,0,0,0.4-0.6,1.3c-0.8,1.1-1.8,2.3-3.1,3.6c-1.3,1.2-2.3,2.2-3.1,3c-0.6,0.5-1.2,0.9-1.7,1.1
			c-0.5,0.2-1,0.2-1.4-0.1c-0.2-0.2-0.4-0.4-0.4-0.8c-0.1-0.4,0-0.9,0.2-1.7c0.2-0.7,0.5-1.7,0.9-2.9C493,44.4,493.6,42.9,494.4,41z
			"/>
		<path class="st1" d="M508.3,44.1c-0.2,1.7-0.4,2.9-0.4,3.9c0,0.9,0,1.8,0.2,2.6c0.1,0.6,0.3,1.2,0.5,1.6c0.2,0.5,0.5,0.8,0.8,0.9
			c0.2,0.1,0.4,0.2,0.5,0.2c0.1,0,0.3-0.1,0.6-0.2c0.8-0.4,1.7-1.2,2.6-2.3s1.8-2.3,2.6-3.5c0.8-1.2,1.5-2.3,2.1-3.3
			c0.6-1,0.9-1.5,0.9-1.6c0-0.1,0.1-0.2,0.3-0.2c0.1,0,0.1,0.1,0.1,0.2c-0.1,0.1-0.2,0.5-0.5,1c-0.5,1-1.1,2-1.8,3
			c-0.7,1.1-1.3,2-2,2.9c-0.7,0.9-1.4,1.7-2,2.4c-0.7,0.7-1.2,1.2-1.8,1.5c-0.9,0.5-1.7,0.5-2.5,0c-1.4-1-1.9-3.5-1.5-7.5l0.2-2.6
			l-1.3,1.8c-2.2,3.1-3.9,4.6-5,4.6c-0.3,0-0.6,0-0.7-0.1c-0.1-0.1-0.2-0.3-0.3-0.6c-0.1-0.3-0.1-1,0-1.9c0.1-0.9,0.3-1.8,0.6-2.6
			c0.3-0.7,0.7-1.6,1.4-2.6c0.6-1,1.1-1.7,1.5-2.1c0.5-0.5,1-0.8,1.5-1.1c0.5-0.3,1-0.4,1.4-0.4c0.3,0,0.6,0.1,0.9,0.4
			c0.3,0.3,0.5,0.5,0.6,0.8c0.1-0.1,0.1-0.4,0.2-0.9c0.1-0.5,0.2-1,0.3-1.5c0.3-1.7,0.8-3.6,1.4-5.5c0.6-2,1.3-4,2.1-6.1
			c0.8-2.1,1.6-4.2,2.6-6.3c0.9-2.1,1.9-4.1,3-6.1c1.4-2.7,2.5-4.7,3.3-6c0.8-1.3,1.6-2.3,2.3-3c0.3-0.3,0.6-0.6,0.7-0.6
			c0.1-0.1,0.3-0.1,0.6-0.1c0.7,0.1,0.9,0.8,0.8,2.3c-0.1,1.7-0.7,4.2-2,7.6c-0.5,1.5-1.3,3.4-2.2,5.5c-1,2.1-2,4.3-3.2,6.6
			c-1.2,2.3-2.4,4.6-3.6,6.9c-1.3,2.3-2.5,4.3-3.6,6.2l-1.6,2.7L508.3,44.1z M507.6,40.3c-0.1-0.3-0.3-0.6-0.5-0.9
			c-0.2-0.3-0.5-0.5-0.8-0.5c-0.5,0-1,0.4-1.7,1.1c-0.7,0.7-1.4,1.7-2.1,2.8c-0.7,1.1-1.2,2.3-1.5,3.5c-0.3,1.2-0.4,2.1-0.3,2.7
			c0.1,0.3,0.2,0.4,0.3,0.3c0.2-0.1,0.5-0.3,0.9-0.6c0.5-0.3,0.9-0.8,1.4-1.3c0.5-0.5,1.1-1.3,1.9-2.4c0.5-0.7,0.9-1.2,1.2-1.7
			c0.3-0.4,0.5-0.8,0.6-1.2c0.1-0.3,0.2-0.7,0.3-0.9C507.5,40.9,507.5,40.6,507.6,40.3z M509.8,35.5c-0.4,1.7-0.7,2.8-0.8,3.4
			c-0.1,0.6-0.1,0.8,0,0.7l1.2-1.8c0.7-1.2,1.6-2.6,2.5-4.2c0.9-1.6,1.8-3.3,2.7-5.1c0.9-1.8,1.8-3.6,2.7-5.4
			c0.9-1.8,1.7-3.6,2.5-5.2c0.6-1.4,1.2-2.7,1.7-4.1s0.9-2.7,1.3-3.9c0.3-1.2,0.6-2.3,0.7-3.3c0.1-1,0.2-1.7,0.1-2.2
			c-0.1-0.5-0.2-0.8-0.3-0.9c-0.1-0.1-0.4,0-0.6,0.3c-0.6,0.6-1.3,1.5-2.1,2.9c-0.8,1.3-1.9,3.4-3.3,6.1c-2,3.9-3.7,7.8-5.1,11.7
			C511.7,28.4,510.6,32.1,509.8,35.5z"/>
		<path class="st1" d="M533.9,42.1c0.1,0,0.1,0.1,0,0.4c-0.1,0.3-0.4,0.8-0.8,1.7c-0.3,0.7-0.9,1.6-1.5,2.6
			c-0.7,1.1-1.4,2.2-2.3,3.4c-0.8,1.2-1.7,2.5-2.6,3.8c-0.9,1.3-1.7,2.5-2.5,3.6c-0.8,1.1-1.5,2-2.1,2.7c-0.6,0.7-1.1,1.2-1.4,1.4
			c-0.3,0.2-0.6,0.4-0.8,0.4c-0.2,0.1-0.5,0.1-0.9,0.1c-0.5,0-0.9-0.2-1.2-0.6c-0.3-0.4-0.4-0.9-0.6-1.5c-0.1-0.6-0.1-1.3-0.1-2.1
			c0.1-0.8,0.2-1.5,0.3-2.3c0.1-0.6,0.3-1.4,0.6-2.3c0.3-0.9,0.5-1.8,0.8-2.7c0.3-0.9,0.5-1.7,0.7-2.5c0.2-0.8,0.4-1.3,0.5-1.7v-0.3
			v-0.2c-0.7-0.9-1.4-1.8-1.8-2.9c-0.5-1.1-0.4-2.2,0.3-3.3c0.2-0.4,0.4-0.5,0.8-0.4c0.1,0,0.1,0,0.2,0.1c0.1,0.1,0.2,0.2,0.3,0.5
			c0.1,0.3-0.1,1-0.4,1.9c0,0.5,0.1,1.1,0.4,1.7c0.3,0.6,0.7,1.1,1.4,1.6c0.3,0.3,0.4,0.6,0.3,1c-0.1,0.4-0.4,1-0.6,1.8
			c-0.5,1.4-0.8,2.5-1.1,3.4c-0.3,0.9-0.5,1.7-0.7,2.4c-0.2,0.7-0.4,1.3-0.5,1.8c-0.1,0.5-0.2,1.1-0.3,1.8c-0.2,2-0.1,3.3,0.3,3.8
			c0.3,0.4,0.7,0.5,1.3,0.3c0.4-0.1,1.2-0.9,2.3-2.3c1.1-1.4,2.4-3.1,3.7-4.9c1.3-1.9,2.6-3.7,3.9-5.7c1.3-1.9,2.2-3.4,2.8-4.5
			c0.3-0.6,0.6-1.1,0.9-1.5C533.7,42.3,533.8,42.1,533.9,42.1z"/>
		<path class="st1" d="M537.5,57.2c-0.3-0.2-0.4-0.6-0.5-1c0-0.4,0-1.1,0.1-1.9c0.1-0.9,0.3-1.8,0.6-2.9c0.3-1.1,0.6-2.2,0.9-3.3
			c0.3-1.2,0.7-2.3,1.2-3.5c0.4-1.1,0.9-2.2,1.3-3.2c0.1-0.2,0-0.1-0.3,0.3c-0.3,0.4-1,1.4-2.1,2.8c-1.3,1.8-2.3,3-3,3.6
			c-0.7,0.6-1.3,0.9-1.9,0.9c-0.7,0-1.2-0.3-1.3-0.9c-0.1-0.5-0.1-1.1,0-2c0.1-0.9,0.3-1.7,0.6-2.6c0.3-0.9,0.5-1.7,0.9-2.5
			c0.3-0.8,0.6-1.3,1-1.6c0.1-0.2,0.3-0.3,0.6-0.3c0.3-0.1,0.5,0,0.6,0.1c0.1,0.1-0.1,0.4-0.4,1c-0.4,0.6-0.8,1.4-1.1,2.4
			c-0.3,1.1-0.6,2.2-0.9,3.3c-0.2,0.8-0.3,1.3-0.3,1.6c0,0.3,0,0.5,0,0.8c0.1,0.3,0.3,0.4,0.5,0.4c0.2,0,0.6-0.2,1.1-0.5
			c0.3-0.2,0.6-0.5,0.9-0.9c0.3-0.4,0.8-1,1.5-1.8c0.5-0.7,1.1-1.4,1.7-2.1c0.6-0.7,1.2-1.4,1.7-2.1c0.5-0.7,1-1.2,1.3-1.6
			c0.4-0.4,0.6-0.7,0.7-0.8c0.5-0.5,0.7-0.5,0.7,0c0,0.1-0.1,0.4-0.3,0.9c-0.2,0.5-0.4,1-0.7,1.6c-1.1,2.5-2.1,4.7-2.7,6.9
			c-0.7,2.1-1.2,4.1-1.5,5.8c-0.2,1.2-0.3,2-0.3,2.4c0.1,0.4,0.2,0.6,0.5,0.7c0.2,0.1,0.6-0.2,1.1-0.6c0.5-0.5,1-1,1.5-1.7
			c0.2-0.3,0.7-1,1.3-2c0.7-1,1.3-2.1,2.1-3.2c0.7-1.1,1.4-2.3,2.1-3.3c0.7-1.1,1.1-1.9,1.4-2.4c0.6-1.1,0.9-1.6,1-1.6
			c0.2,0,0.2,0.2,0.1,0.6c-0.1,0.4-0.5,1.1-1.2,2.3c-2.4,4.1-4.4,7.2-6,9.4c-1.6,2.1-2.8,3.2-3.7,3.2
			C537.9,57.5,537.7,57.4,537.5,57.2z"/>
		<path class="st1" d="M557.3,42.4c0.1-0.2,0.2-0.4,0.4-0.4c0.1,0,0.2,0,0.2,0.2c0,0.2-0.3,0.6-0.8,1.1c-0.5,0.5-1.2,1.1-1.9,1.7
			c-0.8,0.6-1.6,1.2-2.5,1.8c-0.9,0.6-1.8,1.2-2.6,1.6l-1.1,0.7V52c0.1,1,0,2.2-0.2,3.4c-0.2,1.3-0.4,2.1-0.7,2.7
			c-0.5,1-1.1,1.6-1.9,1.9c-0.3,0.1-0.6,0.2-1,0.2c-0.4,0-0.7-0.1-1-0.2c-0.7-0.3-1.2-1-1.4-2.2c-0.2-1.2,0-2.4,0.4-3.6
			c0.3-0.9,0.9-1.7,1.5-2.5c0.7-0.8,1.5-1.5,2.4-2c0.3-0.3,0.6-0.5,0.6-0.6c0.1-0.1,0.1-0.2,0.1-0.5c-0.1-1.1-0.2-1.9-0.1-2.6
			c0-0.6,0.1-1.3,0.3-1.9c0.3-1.1,0.6-2.3,1.1-3.3c0.4-1.1,0.8-1.8,1.2-2.2c0.2-0.2,0.5-0.3,0.9-0.3c0.3-0.1,0.5,0,0.5,0.2
			c0,0.1-0.1,0.2-0.2,0.3c-0.1,0.1-0.2,0.3-0.3,0.6c-0.3,0.5-0.7,1.2-1.2,2.3c-0.5,1.1-0.8,2-0.9,2.8c-0.2,0.7-0.3,1.5-0.3,2.4
			c-0.1,0.9,0,1.4,0.1,1.5c0.3,0,0.9-0.3,1.8-0.8c0.8-0.5,1.7-1.1,2.6-1.8c0.9-0.7,1.8-1.3,2.5-2C556.5,43.3,557,42.8,557.3,42.4z
			 M546.5,59.2c0.6-0.5,1.1-1.4,1.4-2.6c0.3-1.2,0.4-2.7,0.3-4.5c-0.1-1-0.1-1.6-0.1-1.9c0-0.3-0.1-0.4-0.2-0.3
			c-0.2,0.1-0.5,0.2-0.9,0.5c-0.3,0.3-0.7,0.6-1,0.9s-0.7,0.7-0.9,1c-0.3,0.3-0.5,0.6-0.6,0.9c-0.6,1.1-1,2.2-1.1,3.3
			c-0.1,1.1,0.2,2,0.7,2.7C544.7,60,545.5,60.1,546.5,59.2z"/>
	</g>
	<g>
		<path class="st1" d="M601.5,43c-1.7,0-4.4-1.1-7.2-2.3c-3.5-1.5-7.2-3-9-2.3c-1.2,0.5-2.4,1-3.5,1.6c-0.9,0.4-1.7,0.9-2.6,1.3
			c-2.6,1.1-4.8,1.5-6.8,1.2c-1.1-0.2-2.1-0.6-3.1-1c-0.8-0.3-1.7-0.7-2.6-0.9c-1.4-0.3-2.8-0.3-4.1-0.3l-0.5,0
			c-0.9,0-1.8,0-2.6,0.4c-0.6,0.4-1.2,1.1-2,2.2c-0.1,0.1-0.3,0.2-0.4,0.1c-0.1-0.1-0.2-0.3-0.1-0.4c0.8-1.1,1.5-1.9,2.2-2.3
			c0.9-0.5,1.9-0.5,2.8-0.5l0.5,0c1.3,0,2.8,0,4.2,0.3c0.9,0.2,1.8,0.6,2.6,0.9c1,0.4,2,0.8,3,1c1.9,0.3,4,0,6.4-1.1
			c0.9-0.4,1.8-0.8,2.6-1.2c1.1-0.6,2.3-1.2,3.6-1.6c2.1-0.8,5.8,0.8,9.4,2.3c2.9,1.2,5.6,2.3,7.2,2.2c0.2,0,0.3,0.1,0.3,0.3
			s-0.1,0.3-0.3,0.3C601.7,43,601.6,43,601.5,43z"/>
	</g>
	<g>
		<path class="st1" d="M18.2,47.9c-1.6,0-3.7-1-6-2.2c-3.7-1.8-8-3.9-11.3-2.5c-0.2,0.1-0.3,0-0.4-0.2c-0.1-0.2,0-0.3,0.2-0.4
			c3.6-1.5,7.9,0.6,11.8,2.5c2.6,1.3,5.1,2.5,6.5,2c1.2-0.4,2.4-1,3.5-1.6c0.9-0.4,1.8-0.8,2.7-1.2c2.6-1.1,4.8-1.4,6.8-1.1
			c1.1,0.2,2.1,0.6,3.1,1.1c0.8,0.3,1.7,0.7,2.5,0.9c0.7,0.2,1.4,0.4,2,0.6c0.5,0.2,1,0.3,1.4,0.5l0.4,0.1c1,0.3,2.9,0.7,3.7,0.4
			c0.4-0.1,0.9-1.9,0.3-4.7c0-0.2,0.1-0.3,0.2-0.4c0.2,0,0.3,0.1,0.4,0.2c0.5,2.6,0.2,5.1-0.7,5.4c-1,0.4-2.9-0.1-4.1-0.4L40.9,47
			c-0.5-0.1-1-0.3-1.5-0.5c-0.6-0.2-1.3-0.4-2-0.6c-0.9-0.2-1.8-0.6-2.6-1c-1-0.4-2-0.8-3-1c-1.8-0.3-4,0-6.5,1
			c-0.9,0.4-1.8,0.8-2.6,1.2c-1.2,0.6-2.4,1.1-3.6,1.6C18.9,47.9,18.6,47.9,18.2,47.9z"/>
	</g>
</g>
</svg>
