<?xml version="1.0" encoding="utf-8"?>
<!-- Generator: Adobe Illustrator 23.0.6, SVG Export Plug-In . SVG Version: 6.00 Build 0)  -->
<svg version="1.1" id="Layer_1" xmlns="http://www.w3.org/2000/svg" xmlns:xlink="http://www.w3.org/1999/xlink" x="0px" y="0px"
	 viewBox="0 0 800.6 108" style="enable-background:new 0 0 800.6 108;" xml:space="preserve">
<style type="text/css">
	.st0{fill:none;stroke:#000000;stroke-width:0.6;stroke-linecap:round;stroke-miterlimit:10;}
	.st1{display:none;fill:none;stroke:#000000;stroke-width:0.6;stroke-linecap:round;stroke-miterlimit:10;}
</style>
<g>
	<g>
		<path d="M145.7,40.5c0.2-0.2,0.4-0.2,0.6-0.1c0.2,0.1,0,0.3-0.3,0.6c-0.8,0.5-2,1-3.5,1.5c-1.5,0.6-3.2,1.1-5.1,1.5
			c-1.9,0.5-3.8,0.9-5.8,1.2c-2,0.3-3.9,0.6-5.6,0.6c-0.8,2.5-1.5,4.6-2.1,6.3s-1.2,3.5-1.8,5.2c-0.6,1.8-1.1,3.2-1.4,4.3
			c-0.8,2.7-1.6,5.1-2.2,7.2c-0.6,2.1-1.1,4.1-1.6,6c-0.5,1.9-0.9,3.6-1.2,5.4c-0.3,1.7-0.7,3.4-1,5.1c-0.4,2.1-0.6,3.5-0.7,4.3
			c-0.1,0.8-0.1,1.7-0.1,2.8c0.1,3.6,0.9,6.3,2.4,7.9c0.4,0.4,0.7,0.6,1,0.5c0.3,0,0.7-0.2,1.2-0.6c0.5-0.5,0.9-0.7,1.4-0.7
			c0.3,0,0.4,0.1,0.4,0.2c0,0.1-0.3,0.4-0.7,0.7c-1.1,1.1-2.4,1.3-3.8,0.7c-0.8-0.4-1.6-1.2-2.2-2.5c-0.6-1.3-1.1-2.7-1.3-4.3
			c-0.2-1.4-0.2-2.8-0.1-4.2c0.1-1.4,0.3-3.4,0.8-5.8c0.7-4,1.7-8.6,3.1-13.8c1.4-5.2,3.2-10.9,5.4-17.3l2.1-6l0.5-1.4l-2.6-0.2
			c-1.1-0.2-2.4-0.3-3.7-0.5c-1.3-0.2-3.1-0.4-5.2-0.8c-0.4-0.1-0.6-0.1-0.7,0.1c-0.1,0.1-0.4,0.5-0.7,1.2l-3.1,5.8
			c-2.5,4.8-4.9,8.7-7.1,11.9c-2.2,3.1-4.6,5.8-7,8c-1.3,1.1-2.3,1.9-3,2.4s-1.3,0.8-1.9,0.9c-1.1,0.2-1.7,0-1.8-0.6
			c0.1-0.5,0.3-0.5,0.6-0.1c0.5,0.7,1.3,0.5,2.6-0.5c0.7-0.4,0.9-0.7,0.8-0.9c-0.2-0.2-0.2-0.2,0.2-0.1c0.2,0.1,0.4,0,0.6-0.2
			c0.3-0.2,0.8-0.7,1.5-1.4c0.5-0.5,1.1-1,1.8-1.7c0.6-0.7,1.2-1.3,1.5-1.7c0.5-0.5,1-1.2,1.6-2c0.6-0.8,1.2-1.7,1.9-2.6
			c0.6-0.9,1.3-1.8,1.9-2.7c0.6-0.9,1.1-1.7,1.6-2.5c0.4-0.6,0.9-1.6,1.7-3.1c0.8-1.4,1.5-2.9,2.3-4.4c0.8-1.5,1.5-2.8,2.1-3.9
			c0.6-1.1,0.9-1.8,1-1.9c0-0.2-0.9-0.5-2.8-0.9c-1.9-0.4-4.2-0.8-6.9-1.3s-5.6-0.9-8.7-1.3c-3-0.4-5.7-0.6-8-0.8
			c-2-0.2-4.1-0.1-6.5,0.1c-2.4,0.2-4.2,0.6-5.6,1.1c-0.8,0.3-1.8,0.8-2.9,1.4c-1.1,0.6-2,1.2-2.8,1.7c-0.7,0.5-1.6,1.4-2.7,2.7
			c-1.1,1.3-1.8,2.4-2.2,3.2c-0.5,0.8-0.8,1.8-1,2.9c-0.2,1.1-0.3,2.2-0.2,3.2c0.1,1.6,0,2.1-0.4,1.6c-0.2-0.2-0.3-0.6-0.3-1.1
			c-0.1-0.5-0.1-1.1-0.1-1.8c0-0.7,0.1-1.4,0.2-2.1c0.1-0.7,0.3-1.3,0.5-1.8c0.5-1.1,1.2-2.3,2.2-3.6c1-1.3,2.1-2.4,3.1-3.2
			c1.4-1.1,3-2.1,4.7-2.8c1.7-0.7,3.6-1.2,5.8-1.5c2.2-0.3,4.7-0.4,7.5-0.3c2.8,0.1,6,0.4,9.7,0.9c1.8,0.2,3.7,0.5,5.6,0.7
			c1.9,0.3,3.7,0.6,5.3,0.9c1.6,0.3,3.1,0.6,4.3,0.8c1.2,0.2,2,0.4,2.4,0.5c0.2,0.2,0.4,0,0.6-0.3c0.1-0.2,0.7-1.3,1.8-3.3
			c1.1-2,2.4-4.1,3.9-6.5c1.4-2.4,2.8-4.6,4-6.7c1.3-2.1,2.1-3.5,2.5-4c0.9-1.4,1.9-2.8,2.9-4.2c1-1.4,2-2.8,2.9-4.2
			c0.9-1.3,1.9-2.6,2.8-3.7s1.7-2.1,2.4-2.9c1.4-1.5,2.3-2.5,2.9-3c0.6-0.5,1-0.7,1.4-0.7c0.4,0,0.6,0.1,0.8,0.4
			c0.2,0.3,0.2,0.8,0,1.7c-0.1,0.5-0.3,1.3-0.7,2.6c-0.4,1.3-0.9,2.8-1.5,4.5c-0.6,1.7-1.2,3.5-1.9,5.4c-0.7,1.9-1.4,3.7-2.1,5.4
			l-3.1,8.1c-0.4,0.9-0.8,2.1-1.3,3.6c-0.5,1.5-1,3-1.5,4.4c-0.5,1.4-1,3.2-1.7,5.3c4.3-0.2,8.2-0.7,11.7-1.8
			C141.4,42.2,144,41.3,145.7,40.5z M124.8,42.9c1.1-3.3,2.1-6.4,3.2-9.4c1.1-3,2.4-6.4,3.8-10.1c2.4-5.9,4.1-10.4,5.3-13.8
			c1.2-3.3,1.7-5,1.4-5c-0.2,0-0.7,0.5-1.7,1.5c-1,1-1.9,2.1-2.9,3.1c-0.5,0.6-1.1,1.4-1.8,2.3c-0.8,1-1.6,2-2.4,3.2
			c-0.8,1.2-1.7,2.4-2.6,3.6c-0.9,1.3-1.7,2.4-2.3,3.5c-0.5,0.8-1.2,1.9-2.1,3.2c-0.8,1.3-1.7,2.8-2.7,4.4c-1,1.6-1.9,3.2-2.9,4.8
			c-1,1.6-1.9,3.1-2.6,4.4c-0.8,1.3-1.6,2.9-2.5,4.6c0.1,0.1,0.6,0.2,1.6,0.4c1,0.2,2.1,0.4,3.3,0.6c1.2,0.2,2.4,0.3,3.5,0.5
			c1.1,0.1,1.9,0.2,2.4,0.2h1.1L124.8,42.9z"/>
		<path d="M138.2,58.1c-0.3,2.2-0.5,3.9-0.5,5.1c0,1.2,0.1,2.4,0.3,3.4c0.2,0.8,0.4,1.6,0.7,2.2c0.3,0.6,0.6,1,1,1.3
			c0.3,0.2,0.5,0.2,0.7,0.2c0.2,0,0.4-0.1,0.8-0.2c1.1-0.5,2.2-1.5,3.5-3c1.3-1.5,2.4-3,3.5-4.6c1.1-1.6,2-3,2.7-4.3
			c0.8-1.3,1.1-2,1.1-2.2c0-0.2,0.2-0.2,0.5-0.2c0.2,0,0.2,0.1,0.1,0.2c-0.1,0.2-0.3,0.6-0.7,1.4c-0.7,1.3-1.5,2.6-2.3,4
			c-0.9,1.4-1.8,2.7-2.7,3.9c-0.9,1.2-1.8,2.2-2.7,3.1c-0.9,0.9-1.7,1.6-2.3,1.9c-1.1,0.7-2.2,0.7-3.3,0c-1.8-1.3-2.5-4.6-2.1-10
			l0.2-3.4l-1.7,2.4c-3,4.1-5.2,6.2-6.6,6.2c-0.5,0-0.8-0.1-0.9-0.2c-0.2-0.1-0.3-0.4-0.5-0.7c-0.2-0.5-0.2-1.3,0-2.6
			c0.2-1.3,0.4-2.4,0.8-3.5c0.4-1,1-2.1,1.8-3.5c0.8-1.3,1.5-2.3,2.1-2.8c0.6-0.6,1.3-1.1,2-1.4c0.7-0.3,1.3-0.5,1.9-0.5
			c0.4,0,0.8,0.2,1.2,0.5c0.4,0.3,0.7,0.7,0.9,1.1c0.1-0.2,0.2-0.6,0.3-1.3c0.1-0.7,0.2-1.4,0.4-2.1c0.5-2.3,1.1-4.7,1.9-7.4
			c0.8-2.6,1.7-5.3,2.7-8.1c1-2.8,2.2-5.5,3.4-8.3c1.3-2.8,2.6-5.5,3.9-8.2c1.8-3.6,3.3-6.3,4.4-8c1.1-1.8,2.1-3.1,3-3.9
			c0.5-0.5,0.8-0.7,1-0.9c0.2-0.1,0.4-0.2,0.7-0.2c0.9,0.1,1.3,1.1,1,3.1c-0.1,2.2-1,5.6-2.6,10.1c-0.7,2.1-1.7,4.5-3,7.3
			c-1.3,2.8-2.7,5.8-4.3,8.8c-1.6,3.1-3.2,6.1-4.8,9.2c-1.7,3-3.3,5.8-4.8,8.2l-2.2,3.5L138.2,58.1z M137.3,53
			c-0.2-0.4-0.4-0.8-0.6-1.3c-0.3-0.5-0.6-0.7-1.1-0.7c-0.6,0-1.4,0.5-2.3,1.5c-0.9,1-1.8,2.2-2.7,3.8c-0.9,1.5-1.6,3.1-2.1,4.6
			c-0.5,1.6-0.6,2.8-0.3,3.6c0.1,0.4,0.2,0.5,0.5,0.5c0.2-0.1,0.6-0.3,1.3-0.8c0.6-0.5,1.2-1,1.8-1.7c0.6-0.7,1.4-1.7,2.5-3.2
			c0.7-0.9,1.2-1.7,1.6-2.2c0.4-0.6,0.7-1.1,0.9-1.5c0.2-0.5,0.3-0.9,0.4-1.3C137.1,53.8,137.2,53.4,137.3,53z M140.2,46.6
			c-0.5,2.2-0.9,3.7-1,4.5c-0.2,0.8-0.2,1.1,0,1l1.6-2.4c1-1.6,2.1-3.5,3.3-5.6c1.2-2.1,2.4-4.4,3.6-6.7c1.2-2.4,2.4-4.7,3.6-7.2
			c1.2-2.4,2.3-4.7,3.3-7c0.8-1.8,1.6-3.6,2.3-5.5s1.3-3.5,1.7-5.1c0.5-1.6,0.8-3,1-4.3c0.2-1.3,0.2-2.3,0.2-3
			c-0.1-0.7-0.2-1.1-0.4-1.2c-0.2-0.1-0.5,0-0.9,0.4c-0.8,0.8-1.7,2-2.7,3.8c-1.1,1.8-2.5,4.5-4.3,8.2c-2.7,5.2-4.9,10.4-6.8,15.6
			C142.8,37.2,141.3,42,140.2,46.6z"/>
		<path d="M171.3,55.6c0.2,0,0.2,0.1,0.2,0.3s-0.1,0.3-0.2,0.3c-0.2,0.4-0.4,1-0.8,1.8c-0.4,0.8-0.8,1.8-1.3,2.8
			c-0.5,1-1,2.1-1.6,3.1s-1.1,2-1.5,2.8c-2.4,4.3-4.3,7.1-5.7,8.6c-1.4,1.5-2.5,1.9-3.5,1.3c-0.3-0.1-0.6-0.6-1-1.5
			c-0.2-0.6-0.4-1.1-0.4-1.4c0-0.3,0-1.2,0.2-2.6c0.1-1.2,0.2-2.4,0.4-3.4c0.2-1.1,0.4-2.1,0.7-3.2c0.3-1.1,0.6-2.2,1-3.4
			c0.4-1.2,0.9-2.6,1.5-4.1c0-0.2-0.4,0.3-1.1,1.6c-1.2,1.7-2.4,3.2-3.6,4.5c-1.2,1.3-2.2,2-3,2.1c-1.1,0.2-1.7-0.1-2-0.9
			c-0.3-0.8-0.2-1.8,0.1-3.1c0.3-1.3,0.9-2.7,1.8-4.2c0.9-1.5,2-2.8,3.2-4c0.8-0.7,1.4-1.2,1.9-1.4c0.5-0.3,1.1-0.4,1.7-0.4
			c1,0,1.6,0.6,1.9,1.7l0.1,0.9l0.7-1.1c0.3-0.6,0.6-1,0.9-1.1c0.3-0.2,0.4,0,0.5,0.3c0.1,0.1,0,0.6-0.3,1.6c-0.3,1-0.7,2.2-1.1,3.5
			c-2,5.7-3.2,10.1-3.7,13.1c-0.5,3-0.4,5,0.3,6c0.2,0.2,0.4,0.3,0.5,0.3c0.1,0,0.3-0.1,0.6-0.2c1.4-0.6,3.5-3.3,6.3-8
			c0.5-0.8,1.1-1.8,1.7-2.9c0.6-1.1,1.1-2.1,1.6-3.1c0.5-1,1-2,1.4-2.9c0.5-0.9,0.8-1.6,1-2.2C170.8,56.1,171.2,55.6,171.3,55.6z
			 M159.5,55l-0.2-1.1c-0.2-0.6-0.3-1.1-0.6-1.5c-0.2-0.4-0.4-0.6-0.6-0.6c-0.2,0-0.6,0.2-1,0.5c-0.4,0.3-0.9,0.8-1.4,1.4
			c-0.5,0.6-1,1.2-1.5,1.9c-0.5,0.7-0.9,1.3-1.3,1.9c-0.8,1.3-1.5,2.6-1.9,4c-0.5,1.4-0.6,2.4-0.3,2.9c0.2,0.5,0.5,0.5,1.1,0.2
			c0.8-0.4,1.9-1.3,3.1-2.7c1.2-1.4,2.4-3,3.4-4.8L159.5,55z"/>
		<path d="M185.4,69.9c-0.1-0.1-0.2-0.2-0.3-0.4c-0.1-0.2-0.2-0.4-0.3-0.7c-0.2-0.4-0.1-1.4,0.1-3.1c0.2-1.7,0.9-4.3,2.2-7.7
			c1.5-3.9,2.3-6.5,2.5-7.8c0.1-1.3-0.1-1.9-0.5-1.7c-0.5,0.3-1.3,1-2.3,2.2c-1,1.1-2,2.4-3,3.6c-1,1.3-1.9,2.5-2.6,3.5
			c-0.8,1.1-1.2,1.7-1.3,1.8c-0.2,0.2-0.3,0.5-0.3,0.8c-0.1,0.2-0.2,0.4-0.2,0.6c-0.1,0.2-0.1,0.3-0.1,0.4c-0.1,0.4-0.2,0.6-0.2,0.6
			c-0.1,0-0.2,0.1-0.5,0.1c-0.1,0-0.2-0.1-0.2-0.2c-0.2-0.2-0.1-0.7,0.1-1.5c0.1-0.5,0.2-1.2,0.5-2.3c0.3-1.1,0.6-2.2,1-3.4
			c0.6-2.1,1-3.6,1.1-4.3c0.2-0.7,0.1-1.2-0.2-1.3c-0.2-0.1-0.7,0.3-1.5,1c-0.9,0.8-1.6,1.6-2.2,2.4c-1.9,2.4-3.6,4.9-5.1,7.4
			c-1.5,2.5-2.5,4.4-2.9,5.8c-0.2,0.6-0.3,1-0.3,1.1c-0.1,0.1-0.2,0.2-0.5,0.2c-0.4,0-0.6-0.2-0.6-0.5c0-0.3,0.1-1,0.3-2.1
			c0.3-1.1,0.7-2.6,1.1-4.4c0.4-1.8,0.9-3.5,1.5-5.2c0.8-2.4,1.5-4,1.9-5c0.4-0.9,0.9-1.4,1.4-1.4c0.3,0,0.4,0.2,0.4,0.6
			c0,0.4-0.3,1.2-0.9,2.5c-0.2,0.7-0.5,1.5-0.9,2.5c-0.3,1-0.6,1.9-0.9,2.7c-0.3,0.9-0.5,1.7-0.7,2.3c-0.2,0.7-0.3,1.1-0.3,1.1
			c0,0.2,0.2,0,0.7-0.7c0.2-0.5,0.6-1.1,1.1-1.8c0.5-0.8,1.1-1.5,1.7-2.3c0.6-0.8,1.1-1.5,1.6-2.2c0.5-0.7,0.9-1.2,1.2-1.6
			c0.8-0.8,1.5-1.5,2.2-2.1c0.7-0.6,1.3-0.9,1.7-0.9c0.6,0,0.9,0.5,0.9,1.5c0,1-0.2,2.1-0.4,3.3c-0.3,1.4-0.7,2.9-1.3,4.7l1.9-2.7
			c1-1.3,2-2.6,3.1-3.9c1.1-1.3,2-2.2,2.8-2.9c0.5-0.5,0.9-0.7,1.1-0.9c0.2-0.1,0.5-0.1,0.9-0.1c0.5,0.1,0.9,0.6,1,1.7
			c0.2,1.1-0.4,3.1-1.6,6.2c-0.7,1.8-1.3,3.6-1.8,5.2c-0.5,1.6-0.9,3.1-1.1,4.4c-0.3,1.3-0.4,2.3-0.5,3.1c0,0.8,0.1,1.1,0.4,1.1
			c0.5,0,1.4-0.7,2.7-2.2c1.4-1.5,2.7-3.2,4.1-5.3l3.2-4.6c0.4-0.6,0.7-1.1,1-1.5c0.3-0.4,0.5-0.6,0.6-0.6c0.2,0,0.2,0.1,0.2,0.2
			c0,0.1-0.3,0.6-0.9,1.3l-2.3,3.3c-1.7,2.7-3.3,5-4.7,6.7s-2.5,2.7-3.3,3c-0.4,0.2-0.7,0.2-0.9,0.3
			C185.9,70.1,185.7,70.1,185.4,69.9z"/>
		<path d="M280.9,55.6c0.3-0.2,0.6-0.2,0.7-0.1c0.2,0.1,0.1,0.3-0.4,0.6c-1.7,0.9-3.6,1.3-5.6,1.3c-2-0.1-4-0.4-5.9-1
			c-1.9-0.6-3.7-1.3-5.3-2.2c-1.6-0.9-2.9-1.7-3.9-2.3c-0.1,0-0.2,0.3-0.3,0.9c-0.2,0.6-0.3,1.2-0.5,2c-2,7.8-4.5,15-7.5,21.7
			c-2.9,6.3-5.9,11.1-8.9,14.4s-6.6,5.5-10.7,6.7c-0.6,0.2-1.4,0.4-2.3,0.5c-0.9,0.1-1.9,0.2-2.9,0.2c-1,0-1.9,0-2.8-0.1
			c-0.9-0.1-1.6-0.2-2.1-0.3c-2.2-0.6-4.2-1.7-6-3.3c-1.8-1.6-3.3-3.6-4.4-5.9c-1.2-2.3-2-4.9-2.6-7.8c-0.5-2.9-0.6-5.9-0.2-9
			c0.5-5.2,2-10,4.3-14.5c2.3-4.5,5.2-8,8.7-10.4c1.5-1.1,3.2-2.1,5.2-3c1.9-0.9,3.9-1.6,5.8-2.1c0.4-0.1,1-0.1,1.8-0.2
			c0.8,0,1.7-0.1,2.6-0.1c3.5,0,6.9,0.6,10.1,1.8l1.6,0.7l1.3-0.9c0.3-0.3,0.8-0.7,1.5-1.3c0.7-0.6,1.5-1.1,2.2-1.7
			c0.8-0.6,1.7-1.3,2.8-2.2c1.1-0.8,2.1-1.6,2.9-2.3l3.1-2.4l0.6-1.9c3.4-12.4,7-20.6,10.8-24.6c1.4-1.6,2.8-2.4,4.1-2.4
			c1.4,0,2.5,1,3.1,2.9c0.1,0.5,0.1,0.8,0.1,1.1c0,0.3-0.1,0.8-0.2,1.4c-0.2,0.8-0.6,1.9-1.3,3.3c-0.6,1.4-1.3,2.6-1.9,3.8
			c-0.6,1-1.3,2.1-2.2,3.2c-0.8,1.1-1.7,2.3-2.7,3.5c-1,1.2-2,2.4-3.1,3.6c-1.1,1.2-2.2,2.3-3.2,3.2l-2.2,2.1l-2.2,9.2
			c-0.5,2.2-0.9,3.9-1.2,5.2c-0.3,1.3-0.5,2.2-0.6,2.8c-0.1,0.6-0.2,1-0.1,1.2c0,0.2,0.1,0.3,0.2,0.4c1.1,0.8,2.5,1.7,4.2,2.5
			c1.7,0.8,3.4,1.5,5.2,2.1c1.8,0.6,3.6,0.9,5.4,1C277.7,56.8,279.4,56.4,280.9,55.6z M259,50.8l-0.5-0.5c-0.2-0.2-0.6-0.5-1.2-0.9
			c-0.6-0.4-1.2-0.8-1.9-1.2c-0.7-0.4-1.4-0.8-2.1-1.3c-0.7-0.4-1.3-0.8-1.8-1.1l-2.2-1.3l-1.5,1.4c-2.4,2.1-4.6,4.1-6.6,6.2
			c-2,2.1-3.3,3.7-4.1,5c-0.6,1-1.2,2.1-1.8,3.4c-0.6,1.3-1.1,2.5-1.5,3.8c-0.5,1.3-0.8,2.5-1.1,3.8c-0.3,1.2-0.4,2.2-0.4,3.1
			c0,0.6-0.1,0.9-0.3,0.9c-0.2,0-0.2-0.1-0.3-0.3c0-0.2,0-0.6,0.1-1.3c0.2-1.1,0.4-2.4,0.9-4.1c0.4-1.7,0.9-3.1,1.3-4.3
			c0.5-1.4,1.1-2.6,1.8-3.7c0.6-1.1,1.4-2.2,2.3-3.4c0.9-1.2,2-2.4,3.4-3.8c1.3-1.3,3-2.9,5-4.6l2.4-2.2l-1-0.5
			c-0.9-0.4-2.2-0.8-3.9-1.2c-1.7-0.4-3.1-0.7-4.3-0.9c-4.3-0.5-8.9,0.6-13.6,3.2c-3.9,2.1-7.1,5.1-9.8,9.1
			c-2.7,3.9-4.5,8.5-5.6,13.7c-0.2,0.7-0.3,1.6-0.3,2.6c-0.1,1.1-0.1,2.1-0.2,3.2c0,1.1,0,2.1,0,3.1c0,1,0.1,1.9,0.2,2.6
			c0.4,2.9,1.2,5.6,2.3,8.1c1.2,2.5,2.6,4.6,4.4,6.3c0.8,0.8,1.9,1.5,3.1,2.2c1.3,0.7,2.4,1.1,3.5,1.4c1,0.2,2.2,0.3,3.7,0.3
			c1.5,0,2.8-0.2,4-0.6c0.5-0.2,1.2-0.4,2-0.7c0.8-0.3,1.5-0.6,2.1-1c2-1.1,3.8-2.4,5.4-4c1.6-1.6,3.3-3.8,5.1-6.6
			c2.4-3.9,4.5-8.2,6.4-13.1c1.9-4.8,3.7-10.3,5.4-16.5L259,50.8z M259.2,49.4c0.1-0.1,0.3-0.9,0.7-2.3c0.4-1.5,0.8-3.2,1.3-5.3
			c0.5-2.1,0.9-3.8,1.2-5.2c0.3-1.4,0.5-2.2,0.4-2.3c-0.2,0.1-0.3,0.2-0.3,0.2c-0.2,0.1-0.3,0.2-0.6,0.5l-5.8,4.6l-5.5,4.2l-0.6,0.5
			l2.4,1.3c0.6,0.4,1.4,0.8,2.3,1.4c0.9,0.5,1.7,1,2.3,1.4C258.5,49.3,259.2,49.7,259.2,49.4z M265.3,30.6c-0.2,0.5,0.1,0.4,0.7-0.2
			c0.6-0.6,1.8-1.8,3.6-3.7c1-1.1,2-2.2,3-3.4c1-1.2,1.8-2.1,2.2-2.7c2.1-2.7,3.6-5.3,4.7-7.7c1.1-2.4,1.5-4.2,1.3-5.5
			c-0.3-1.2-0.8-2.1-1.6-2.6c-0.3-0.2-0.5-0.2-0.7-0.2c-0.2,0-0.5,0.2-1,0.5c-1.8,1-3.8,3.5-5.9,7.5c-2.1,4-3.9,9-5.5,14.8
			L265.3,30.6z"/>
		<path d="M279.4,66.5c-2.1-0.8-1.9-4,0.5-9.6c1-2.1,2-3.8,3-5.1c1-1.3,2-1.9,2.8-1.9c0.8,0,1.3,0.5,1.4,1.5c0,0.2,0,0.7,0.1,1.5
			c0,0.8,0,1.3-0.2,1.7c0,0.2-0.1,0.2-0.2,0.2c-0.2,0-0.2-0.3-0.2-1c0-0.7,0-1.3-0.2-1.8l-0.2-0.8c-0.2-0.5-0.4-0.7-0.7-0.5
			c-0.3,0.2-0.5,0.4-0.6,0.5c-0.5,0.6-1,1.5-1.7,2.7c-0.6,1.2-1.3,2.4-1.8,3.7c-0.6,1.3-1,2.5-1.4,3.7c-0.4,1.2-0.6,2.1-0.6,2.7
			c0,0.8,0.3,1.5,0.9,1.9c0.6,0.4,1.3,0.5,2.1,0.3c0.7-0.2,1.7-0.9,3.1-1.9c1.4-1.1,2.9-2.2,4.3-3.4c1.5-1.2,2.8-2.3,3.9-3.4
			c1.1-1,1.7-1.6,1.9-1.7c0.2-0.2,0.4-0.2,0.6-0.1c0.2,0.1,0.1,0.2-0.1,0.5c-0.3,0.3-1,1-2.2,2c-1.1,1-2.4,2.1-3.8,3.2
			s-2.7,2.2-4,3.2c-1.3,1-2.3,1.7-3,1.9c-0.6,0.2-1.3,0.3-2,0.3C280.5,66.8,279.9,66.7,279.4,66.5z"/>
		<path d="M309,56c0.5-0.2,0.9-0.4,1.2-0.4c0.3,0,0.1,0.2-0.7,0.7c-0.9,0.6-2.1,0.9-3.4,0.9c-1.4,0-2.5-0.8-3.5-2.3
			c-0.5-0.6-0.8-0.9-0.8-1c0.1,0.6,0,1.6-0.3,2.9c-0.3,1.3-0.6,2.2-0.9,2.9c-0.7,1.6-1.6,3-2.7,4.3c-1.1,1.3-2.1,1.8-2.9,1.8
			c-0.1,0-0.2-0.1-0.5-0.2c-0.3-0.1-0.5-0.4-0.7-0.9c-0.5-1-0.5-2.2-0.2-3.7c0.3-1.5,0.8-2.9,1.4-4.4c0.6-1.4,1.4-2.7,2.2-3.7
			c0.8-1,1.5-1.6,2.2-1.7c1.1-0.1,2.2,0.8,3.3,2.6c1.1,1.7,2.1,2.7,3,2.8C306.6,56.9,307.8,56.6,309,56z M300.5,58.2
			c0.2-0.8,0.4-1.5,0.5-2c0.1-0.5,0.1-1,0.1-1.4c-0.1-0.6-0.2-1.2-0.3-1.8c-0.2-0.6-0.3-0.9-0.5-0.9c-0.2,0-0.6,0.3-1.1,0.9
			c-0.5,0.6-1,1.3-1.5,2.2c-1.3,2-2.2,3.8-2.7,5.6c-0.5,1.7-0.6,3-0.2,3.9c0.2,0.4,0.4,0.6,0.7,0.5c0.3,0,0.8-0.4,1.5-1
			c0.8-0.8,1.5-1.7,2.1-2.6C299.6,60.7,300.1,59.6,300.5,58.2z"/>
		<path d="M346.4,29.9c0.7-0.5,1.2-0.7,1.4-0.7c0.3,0,0.2,0.2-0.3,0.6c-1.4,1.3-4.4,2.3-8.8,3c-1.6,0.2-3.4,0.3-5.4,0.3
			c-2,0-3.7-0.2-5.1-0.5c-0.8-0.2-1.9-0.4-3.3-0.8c-1.4-0.4-2.8-0.8-4.2-1.3c-0.2,0.3-0.3,0.6-0.5,0.9c-0.2,0.3-0.3,0.6-0.5,0.9
			c-2.5,5.5-4.8,10.8-6.8,16.1c-2,5.2-3.7,10.4-5.2,15.5c-1.2,4.3-2.1,7.6-2.6,10.1c-0.5,2.5-0.8,4.4-0.9,5.7
			c-0.1,1.1,0,2.1,0.3,2.9c0.3,0.8,0.7,1.1,1.1,1.1c0.4,0,0.9-0.4,1.7-1.1c0.7-0.7,1.5-1.5,2.2-2.5c0.8-1.1,1.9-2.6,3.2-4.5
			c1.3-1.9,2.6-4,4-6.2c1.4-2.2,2.8-4.4,4.1-6.6c1.3-2.2,2.5-4,3.4-5.5c0.6-1.3,1.1-1.9,1.4-1.9c0.1,0,0.2,0,0.2,0.1
			c0,0.1-0.3,0.6-0.9,1.7c-0.6,1-1.3,2.2-2.1,3.5c-0.8,1.3-1.6,2.7-2.5,4c-0.8,1.4-1.5,2.4-1.9,3.2c-0.8,1.3-1.7,2.7-2.7,4.3
			c-1,1.6-2,3-2.9,4.4c-1,1.4-1.8,2.5-2.5,3.5c-0.7,1-1.2,1.6-1.5,1.9c-0.5,0.7-1.1,1.2-1.7,1.5c-0.5,0.3-0.9,0.5-1.5,0.5
			c-0.5,0-1-0.1-1.4-0.3c-1.7-1-1.6-5.4,0.3-13.3c1.7-7.1,3.8-13.9,6.2-20.4c2.4-6.5,5.2-13.1,8.7-19.8l-1.4-0.5
			c-2.2-0.8-4.3-1.5-6.4-2c-2.1-0.5-3.7-0.8-5-0.9c-3.8-0.2-6.2,0.4-7.3,1.9c-0.8,1.1-0.8,2.7-0.2,4.6c0.2,0.4,0.2,0.7,0.3,1
			c0,0.3,0,0.4-0.1,0.4c0,0.1-0.2,0-0.5-0.3c-0.2-0.3-0.5-0.9-0.7-1.7c-0.3-0.8-0.4-1.5-0.3-2.1c0.2-1.6,1-2.8,2.6-3.5
			c1.4-0.6,3.5-0.8,6.4-0.6c1.1,0.1,1.9,0.2,2.6,0.3c0.7,0.1,1.8,0.4,3.3,0.7c1,0.2,2,0.5,3.1,0.9c1.1,0.3,2,0.6,2.7,0.9l1,0.3
			l3.1-5.9c0.8-1.5,1.5-2.8,2-3.7c0.5-0.9,0.9-1.7,1.3-2.2c0.3-0.5,0.6-0.8,0.8-1c0.2-0.2,0.4-0.2,0.5-0.2c0.4,0,0.5,0.2,0.5,0.5
			c-0.2,0.4-0.4,0.6-0.5,0.7c-0.1,0-0.3,0.4-0.7,1.2c-0.4,0.8-0.9,1.8-1.5,3c-0.6,1.2-1.3,2.5-2,3.9c-0.7,1.4-1.4,2.8-2.1,4.2
			c4.8,1.6,8.5,2.5,11.1,2.6c1.6,0.2,3.6,0.1,5.9-0.3c2.3-0.3,4.3-0.7,5.9-1.2c0.4-0.2,0.8-0.4,1.4-0.6
			C345.7,30.3,346.1,30.1,346.4,29.9z"/>
		<path d="M362.7,29.9c0.7-0.5,1.2-0.7,1.4-0.7c0.3,0,0.2,0.2-0.3,0.6c-1.4,1.3-4.4,2.3-8.8,3c-1.6,0.2-3.4,0.3-5.4,0.3
			c-2,0-3.7-0.2-5.1-0.5c-0.8-0.2-1.9-0.4-3.3-0.8c-1.4-0.4-2.8-0.8-4.2-1.3c-0.2,0.3-0.3,0.6-0.5,0.9c-0.2,0.3-0.3,0.6-0.5,0.9
			c-2.5,5.5-4.8,10.8-6.8,16.1c-2,5.2-3.7,10.4-5.2,15.5c-1.2,4.3-2.1,7.6-2.6,10.1c-0.5,2.5-0.8,4.4-0.9,5.7
			c-0.1,1.1,0,2.1,0.3,2.9c0.3,0.8,0.7,1.1,1.1,1.1c0.4,0,0.9-0.4,1.7-1.1c0.7-0.7,1.5-1.5,2.2-2.5c0.8-1.1,1.9-2.6,3.2-4.5
			c1.3-1.9,2.6-4,4-6.2c1.4-2.2,2.8-4.4,4.1-6.6c1.3-2.2,2.5-4,3.4-5.5c0.6-1.3,1.1-1.9,1.4-1.9c0.1,0,0.2,0,0.2,0.1
			c0,0.1-0.3,0.6-0.9,1.7c-0.6,1-1.3,2.2-2.1,3.5c-0.8,1.3-1.6,2.7-2.5,4c-0.8,1.4-1.5,2.4-1.9,3.2c-0.8,1.3-1.7,2.7-2.7,4.3
			c-1,1.6-2,3-2.9,4.4c-1,1.4-1.8,2.5-2.5,3.5c-0.7,1-1.2,1.6-1.5,1.9c-0.5,0.7-1.1,1.2-1.7,1.5c-0.5,0.3-0.9,0.5-1.5,0.5
			c-0.5,0-1-0.1-1.4-0.3c-1.7-1-1.6-5.4,0.3-13.3c1.7-7.1,3.8-13.9,6.2-20.4c2.4-6.5,5.2-13.1,8.7-19.8l-1.4-0.5
			c-2.2-0.8-4.3-1.5-6.4-2c-2.1-0.5-3.7-0.8-5-0.9c-3.8-0.2-6.2,0.4-7.3,1.9c-0.8,1.1-0.8,2.7-0.2,4.6c0.2,0.4,0.2,0.7,0.3,1
			c0,0.3,0,0.4-0.1,0.4c0,0.1-0.2,0-0.5-0.3c-0.2-0.3-0.5-0.9-0.7-1.7c-0.3-0.8-0.4-1.5-0.3-2.1c0.2-1.6,1-2.8,2.6-3.5
			c1.4-0.6,3.5-0.8,6.4-0.6c1.1,0.1,1.9,0.2,2.6,0.3c0.7,0.1,1.8,0.4,3.3,0.7c1,0.2,2,0.5,3.1,0.9c1.1,0.3,2,0.6,2.7,0.9l1,0.3
			l3.1-5.9c0.8-1.5,1.5-2.8,2-3.7c0.5-0.9,0.9-1.7,1.3-2.2c0.3-0.5,0.6-0.8,0.8-1c0.2-0.2,0.4-0.2,0.5-0.2c0.4,0,0.5,0.2,0.5,0.5
			c-0.2,0.4-0.4,0.6-0.5,0.7c-0.1,0-0.3,0.4-0.7,1.2c-0.4,0.8-0.9,1.8-1.5,3c-0.6,1.2-1.3,2.5-2,3.9c-0.7,1.4-1.4,2.8-2.1,4.2
			c4.8,1.6,8.5,2.5,11.1,2.6c1.6,0.2,3.6,0.1,5.9-0.3c2.3-0.3,4.3-0.7,5.9-1.2c0.4-0.2,0.8-0.4,1.4-0.6
			C362,30.3,362.4,30.1,362.7,29.9z"/>
		<path d="M412.3,38.1c0.6,0.8,1,1.8,1.3,3.1c0.3,1.3,0.4,2.8,0.3,4.4c-0.1,1.6-0.3,3.4-0.8,5.3c-0.5,1.9-1.1,3.8-1.8,5.8
			c-1.2,3.2-2.7,6.2-4.5,8.9c-1.8,2.7-3.7,5.2-5.9,7.4c-2.1,2.2-4.4,4-6.8,5.5c-2.4,1.5-4.8,2.6-7.4,3.2c-0.6,0.2-1.4,0.3-2.5,0.3
			c-1.1,0.1-2,0.1-2.8,0.1c-0.4,0-0.8,0-1.1,0c-0.4,0-0.7,0-1-0.1c-3.9-0.7-6.7-2.2-8.6-4.4c-1.9-2.3-2.9-5.6-3.1-9.9
			c-0.1-1.2,0-2.8,0.3-4.8c0.3-2,0.6-3.6,1-4.8c0.8-2.5,1.9-5.1,3.3-7.9c1.4-2.8,3.2-5.5,5.1-8c0.5-0.7,0.8-1.1,0.9-1.3
			c0.1-0.2,0.1-0.5,0-0.9c-0.2-0.8-0.2-1.5-0.3-2.1c0-0.6,0-1.1,0-1.6c0-0.5,0.1-1,0.1-1.5c0-0.5,0.1-1.1,0.3-1.9
			c0.2-1.1,0.3-1.9,0.5-2.6c0.2-0.7,0.4-1.4,0.7-2.2c1.1-3,2.2-5.4,3.5-7.4c1.3-1.9,2.6-3.2,4-3.9c0.5-0.2,1-0.3,1.4-0.3
			c0.8,0,1.5,0.5,2.2,1.5c0.7,1.1,1,2.1,1.1,3.2c0,1.1-0.2,2.3-0.9,3.8c-0.2,0.6-0.5,1.2-0.9,1.8c-0.3,0.6-0.8,1.2-1.3,1.9
			c-0.5,0.7-1.1,1.6-1.8,2.7c-0.7,1.1-1.7,2.3-2.8,3.8l-4.3,6c-0.2,0.2-0.2,0.6,0,1.3c0.5,1.7,2.1,4.6,4.8,8.7l2.6,4l0.5-0.9
			c1.2-2,2.5-3.9,3.8-5.7c1.3-1.8,2.7-3.5,4-5.1c1.3-1.6,2.6-2.9,3.8-4c1.2-1.1,2.3-1.9,3.2-2.5c1.4-0.8,2.9-1.1,4.2-1.1
			c1,0,1.8,0.2,2.5,0.5c0.8,0.2,1.5,0.5,1.9,0.7C411.4,37.1,411.9,37.5,412.3,38.1z M381.4,81.5c0.8,0,1.6,0,2.5-0.1
			c0.9-0.1,1.7-0.2,2.3-0.3c1.9-0.5,3.9-1.2,5.9-2.3c2-1.1,4-2.5,5.8-4.2c1.9-1.7,3.6-3.6,5.4-5.7c1.7-2.1,3.2-4.4,4.5-6.8
			c2.4-4.5,3.9-9,4.7-13.5c0.8-4.4,0.5-7.6-0.8-9.6c-1.1-1.7-2.7-2.5-4.8-2.5c-1.8,0-3.6,0.6-5.2,1.8c-0.4,0.2-0.9,0.7-1.6,1.4
			c-0.7,0.7-1.4,1.4-2.2,2.2c-3.4,3.5-6.5,7.5-9.1,12l-1.1,1.8l0.9,1.1c1.2,1.7,2.6,2.9,4.2,3.8c0.5,0.2,0.9,0.4,1.3,0.5
			c0.3,0.1,0.8,0.1,1.4,0.1h0.3c0.6,0,1,0,1.3-0.1c0.3-0.1,0.7-0.3,1.3-0.7c0.8-0.5,1.7-1.1,2.7-2c0.9-0.9,1.7-1.7,2.2-2.6
			c1.4-2.2,1.8-4.4,1.3-6.7c-0.2-0.6-0.2-1-0.2-1.1c0-0.1,0-0.2,0.1-0.2v-0.1h0.1c0.2,0,0.3,0.2,0.5,0.5c0.3,0.4,0.5,1,0.6,1.7
			c0.1,0.8,0,1.6-0.1,2.4c-0.1,0.8-0.2,1.3-0.2,1.6c-0.1,0.3-0.3,0.8-0.6,1.4c-0.5,0.8-1.1,1.6-2,2.6c-0.9,1-1.7,1.7-2.5,2.3
			c-1.7,1.1-3.3,1.7-4.6,1.7c-2.6,0-5.1-1.5-7.5-4.4c-0.5-0.5-0.7-0.8-0.8-0.9c-0.2,0.4-0.5,1.2-1.1,2.3c-0.6,1.2-1,2.1-1.3,2.9
			c-0.4,0.9-0.6,1.5-0.8,1.8c-0.2,0.3-0.3,0.4-0.5,0.4l-0.2-0.1c-0.1-0.1,0-0.5,0.3-1.1c0.3-0.7,0.6-1.4,0.9-2.3
			c0.3-0.8,0.7-1.6,1-2.3c0.3-0.7,0.6-1.2,0.6-1.3l0.5-1l-2.9-4.3c-1.4-2.1-2.4-3.8-3.1-5.1c-0.7-1.3-1.3-2.4-1.7-3.5l-0.2-0.7
			l-0.2,0.3c-0.2,0.2-0.5,0.6-0.9,1.2c-0.3,0.6-0.7,1.2-1.1,1.8c-0.4,0.6-0.8,1.3-1.3,2c-0.4,0.7-0.8,1.3-1.1,1.8
			c-0.8,1.4-1.5,2.9-2.1,4.2c-0.6,1.4-1.1,2.7-1.5,4c-0.4,1-0.6,1.8-0.7,2.5c-0.1,0.6-0.3,1.7-0.5,3.2c-0.2,1.3-0.3,2.3-0.3,3
			c-0.1,0.7-0.1,1.4,0,2.1c0.2,4.1,1.3,7.2,3.1,9.2c1.8,2.1,4.7,3.4,8.5,4H381.4z M390.9,21.7c0.1-0.8-0.1-1.8-0.6-2.9
			c-0.5-1.1-1-1.7-1.5-1.9l-0.2-0.1c-0.9,0-2,0.8-3.3,2.3c-1.3,1.5-2.4,3.3-3.4,5.5c-1.7,3.9-2.7,7.5-3,10.8
			c-0.1,0.7-0.1,1.5-0.1,2.4c0,0.9,0.1,1.5,0.2,1.8c0.4-0.4,1.3-1.6,2.9-3.5c1.4-1.8,2.5-3.3,3.4-4.4c0.9-1.1,1.6-2,2.1-2.7
			c0.5-0.7,0.9-1.2,1.1-1.7c0.3-0.4,0.5-0.8,0.7-1.2c0.5-0.8,0.9-1.7,1.2-2.5C390.6,22.8,390.8,22.2,390.9,21.7z"/>
		<path d="M473.9,55.3c0.4-0.4,0.7-0.5,0.9-0.5c0.2,0.1-0.1,0.5-1,1.4c-1.4,1.5-3.2,3-5.1,4.4c-2,1.4-4,2.6-6.2,3.6
			c-1.3,0.6-2.5,1.1-3.5,1.4c-1,0.3-2.5,0.7-4.5,1.1c-0.9,0.2-1.7,0.3-2.3,0.5c-0.6,0.2-1,0.3-1.1,0.3c-0.1,0.1-0.3,0.6-0.6,1.4
			c-0.3,0.9-0.7,2-1.1,3.2c-1.8,5.2-3.8,10.1-5.8,14.8c-2.1,4.7-3.9,8.5-5.6,11.4c-1.4,2.4-3,4.4-4.9,6.1c-1.9,1.7-3.7,2.8-5.5,3.2
			c-0.6,0.2-1.4,0.2-2.3,0.2c-1,0-1.7-0.1-2.3-0.2c-1.1-0.3-2-0.9-2.7-1.8c-0.7-0.9-1.3-2.1-1.6-3.4c-0.3-1.4-0.5-2.9-0.4-4.6
			s0.4-3.5,0.9-5.3c0.8-3,1.7-5.5,3-7.5c1.2-1.9,3-4,5.2-6.1c1.3-1.2,2.5-2.2,3.5-2.9c1-0.7,2.4-1.5,4.2-2.5
			c2.7-1.4,4.9-2.6,6.6-3.4c1.7-0.8,3.4-1.4,4.9-1.9c1.2-0.4,2-0.7,2.5-0.9c0.4-0.2,0.7-0.4,0.7-0.5c0.1-0.3,0.3-1.1,0.7-2.3
			c0.4-1.3,0.9-2.8,1.4-4.5c0.5-1.7,1.1-3.6,1.8-5.7c0.6-2.1,1.3-4,1.8-5.9c0.6-1.9,1.1-3.6,1.5-5.1c0.5-1.5,0.8-2.7,1-3.4
			c1.1-3.5,2.1-6.7,3-9.5c1-2.9,2-5.8,3.2-8.8c0.4-0.8,0.7-1.7,1.1-2.6c0.3-0.9,0.6-1.7,0.9-2.5c-0.9,1.6-2,3.2-3.1,4.7
			c-1.2,1.6-2.3,2.9-3.5,4.2c-0.6,0.6-1.4,1.3-2.4,2.1c-1,0.8-2.1,1.6-3.2,2.5c-1.1,0.9-2.3,1.7-3.5,2.6c-1.2,0.8-2.3,1.6-3.2,2.2
			c-1.3,0.8-2.4,1.6-3.4,2.3c-1,0.7-1.8,1.3-2.6,1.9c-0.8,0.6-1.5,1.2-2.2,1.8c-0.7,0.6-1.4,1.3-2.2,2.1c-1.6,1.5-2.9,2.9-4,4.1
			c-1.1,1.2-1.9,2.4-2.6,3.4c-0.5,0.8-0.9,1.7-1.3,3c-0.4,1.2-0.6,2.2-0.6,3.1c-0.2,1.4,0,2.8,0.5,4.2c0.5,1.4,1.2,2.7,2.2,3.9
			c1.1,1.2,1.4,1.8,1,1.8c-0.2,0-0.3,0-0.3-0.1c-0.2-0.1-0.2-0.2-0.3-0.2c0-0.1-0.1-0.2-0.3-0.3c-1.3-1-2.3-2.3-3-3.9
			c-0.7-1.6-1-3.4-0.8-5.3c0.2-2.2,0.9-4.4,2.3-6.6c1.4-2.2,3.5-4.6,6.4-7.4c0.8-0.7,1.5-1.3,2.1-1.9c0.6-0.6,1.4-1.2,2.2-1.8
			c0.8-0.6,1.7-1.3,2.7-1.9c1-0.7,2.3-1.5,3.7-2.5c3.4-2.3,6.4-4.5,9.1-6.7c2.6-2.2,4.6-4.3,6-6.2c1.1-1.3,2.1-2.7,3-4.1
			c0.9-1.4,1.6-2.7,2.1-3.8l0.5-0.7c0.1-0.3,0.1-0.6,0.1-0.9c0.3-0.8,0.6-0.8,0.9,0c0.5,1-0.5,4.5-2.9,10.5
			c-1.1,2.7-2.1,5.5-3.1,8.5c-1,3-2,6.1-3,9.3c-0.2,0.6-0.4,1.5-0.7,2.6c-0.3,1.1-0.7,2.4-1.2,3.8c-0.5,1.4-0.9,2.9-1.4,4.4
			c-0.5,1.6-1,3.1-1.4,4.6c-0.9,3-1.7,5.6-2.4,7.8c-0.7,2.2-1,3.3-0.9,3.4c1.5-0.3,2.8-0.6,3.8-0.8c1-0.2,1.9-0.5,2.8-0.7
			c0.9-0.3,1.5-0.5,1.9-0.6c2.7-1.1,5.3-2.5,8-4.3C470.4,58.7,472.4,57,473.9,55.3z M444.9,80.4c0.5-1.1,0.9-2.3,1.4-3.7
			c0.5-1.4,1-2.7,1.4-4s0.9-2.8,1.5-4.6c0-0.1-0.2,0-0.7,0.1c-0.5,0.2-1,0.3-1.7,0.6c-0.9,0.3-2.1,0.7-3.4,1.3
			c-1.4,0.6-2.8,1.2-4.2,1.9c-1.4,0.7-2.8,1.4-4.2,2.2c-1.4,0.7-2.5,1.4-3.4,2c-0.5,0.4-1.2,0.9-1.9,1.5c-0.8,0.6-1.5,1.3-2.3,2.1
			c-0.8,0.7-1.5,1.4-2.1,2.1c-0.6,0.7-1.2,1.3-1.5,1.8c-0.8,1.1-1.5,2.1-2,3.2c-0.5,1.1-1,2.5-1.5,4.2c-0.9,2.7-1.3,5.3-1.3,7.8
			c0,2.4,0.5,4.5,1.5,6.2c0.7,1.3,1.7,2.1,3.2,2.4c1.4,0.3,3,0.1,4.6-0.7c1.3-0.6,2.7-1.7,4.3-3.2c1.6-1.6,2.9-3.2,3.9-4.8
			c0.5-0.9,1.1-2.1,1.8-3.4c0.7-1.4,1.4-2.9,2.1-4.4c0.7-1.6,1.5-3.3,2.3-5.1S444.2,82.2,444.9,80.4z"/>
		<path d="M487.1,56c0.5-0.2,0.9-0.4,1.2-0.4c0.3,0,0.1,0.2-0.7,0.7c-0.9,0.6-2.1,0.9-3.4,0.9c-1.4,0-2.5-0.8-3.5-2.3
			c-0.5-0.6-0.8-0.9-0.8-1c0.1,0.6,0,1.6-0.3,2.9c-0.3,1.3-0.6,2.2-0.9,2.9c-0.7,1.6-1.6,3-2.7,4.3c-1.1,1.3-2.1,1.8-2.9,1.8
			c-0.1,0-0.2-0.1-0.5-0.2c-0.3-0.1-0.5-0.4-0.7-0.9c-0.5-1-0.5-2.2-0.2-3.7c0.3-1.5,0.8-2.9,1.4-4.4c0.6-1.4,1.4-2.7,2.2-3.7
			s1.5-1.6,2.2-1.7c1.1-0.1,2.2,0.8,3.3,2.6c1.1,1.7,2.1,2.7,3,2.8C484.7,56.9,485.8,56.6,487.1,56z M478.6,58.2
			c0.2-0.8,0.4-1.5,0.5-2c0.1-0.5,0.1-1,0.1-1.4c-0.1-0.6-0.2-1.2-0.3-1.8c-0.2-0.6-0.3-0.9-0.5-0.9c-0.2,0-0.6,0.3-1.1,0.9
			c-0.5,0.6-1,1.3-1.5,2.2c-1.3,2-2.2,3.8-2.7,5.6c-0.5,1.7-0.6,3-0.2,3.9c0.2,0.4,0.4,0.6,0.7,0.5c0.3,0,0.8-0.4,1.5-1
			c0.8-0.8,1.5-1.7,2.1-2.6C477.7,60.7,478.2,59.6,478.6,58.2z"/>
		<path d="M498.5,55.8c0.2-0.3,0.3-0.5,0.5-0.5c0.2,0,0.3,0.1,0.3,0.3c0,0.3-0.3,0.8-1,1.5c-0.7,0.7-1.5,1.4-2.6,2.2
			c-1,0.8-2.1,1.6-3.4,2.5c-1.2,0.8-2.4,1.6-3.4,2.2l-1.5,0.9v3.8c0.1,1.4,0,2.9-0.2,4.6c-0.2,1.7-0.5,2.9-0.9,3.5
			c-0.6,1.3-1.4,2.1-2.5,2.5c-0.4,0.2-0.8,0.2-1.4,0.2c-0.5,0-1-0.1-1.4-0.2c-1-0.4-1.6-1.3-1.8-2.9c-0.2-1.6,0-3.1,0.6-4.7
			c0.5-1.1,1.1-2.3,2.1-3.4c0.9-1.1,2-2,3.2-2.7c0.5-0.4,0.7-0.6,0.9-0.7c0.1-0.1,0.2-0.3,0.2-0.6c-0.2-1.4-0.2-2.6-0.2-3.4
			c0-0.8,0.2-1.7,0.4-2.5c0.4-1.5,0.9-3,1.4-4.4c0.6-1.4,1.1-2.4,1.7-3c0.3-0.2,0.7-0.4,1.1-0.5c0.5-0.1,0.7,0,0.7,0.2
			c0,0.1-0.1,0.2-0.2,0.4c-0.2,0.2-0.3,0.4-0.5,0.7c-0.5,0.6-1,1.6-1.6,3.1c-0.6,1.4-1,2.7-1.3,3.8c-0.2,0.9-0.4,2-0.5,3.2
			c-0.1,1.2,0,1.9,0.1,2.1c0.5,0,1.2-0.3,2.3-1c1.1-0.7,2.3-1.5,3.5-2.3c1.2-0.9,2.3-1.7,3.4-2.6C497.5,56.9,498.2,56.3,498.5,55.8z
			 M484.1,78.1c0.8-0.7,1.4-1.8,1.8-3.5c0.4-1.6,0.5-3.6,0.5-6c-0.1-1.3-0.1-2.1-0.2-2.5c0-0.4-0.1-0.5-0.3-0.5
			c-0.3,0.1-0.7,0.3-1.1,0.6c-0.5,0.3-0.9,0.7-1.4,1.2s-0.9,0.9-1.3,1.4c-0.4,0.5-0.6,0.8-0.8,1.1c-0.8,1.4-1.3,2.9-1.4,4.3
			c-0.1,1.4,0.2,2.7,1,3.6C481.8,79.2,482.9,79.3,484.1,78.1z"/>
		<path d="M513.1,55.8c0.2,0.3-1.3,1.9-4.4,4.9c-1.1,1.1-2.1,2.1-2.9,2.7s-1.5,1.2-2.1,1.6c-0.6,0.4-1.1,0.6-1.7,0.8
			c-0.5,0.2-1.1,0.2-1.7,0.2c-0.9,0.1-1.6,0-2.2-0.3c-0.5-0.2-0.8-0.5-1-0.7c-0.2-0.2-0.4-0.6-0.6-1.3c-0.2-0.5-0.2-1.3-0.1-2.5
			c0.1-1.1,0.4-2.1,0.7-3c0.3-0.8,0.8-1.9,1.5-3.1c0.7-1.2,1.3-2.1,1.9-2.6c0.9-0.9,1.9-1.4,3-1.4c1.2,0,1.8,0.6,1.7,1.7
			c-0.1,0.4-0.3,0.9-0.7,1.5c-0.4,0.6-0.9,1.2-1.4,1.9c-0.6,0.6-1.2,1.3-1.9,1.9c-0.7,0.6-1.4,1.1-2.1,1.5l-0.8,0.6l-0.1,1.6
			c-0.1,1.9,0.3,3.1,1.1,3.5c0.9,0.5,2.1,0.2,3.6-0.7c1.5-0.9,3.7-2.8,6.5-5.6c0.5-0.5,1-1,1.5-1.5c0.5-0.5,0.8-0.9,1-1.1
			C512.7,56,513,55.7,513.1,55.8z M498.7,58.9c-0.1,0.4-0.1,0.6-0.1,0.6c0,0,0.2,0,0.4-0.2c0.2-0.1,0.4-0.3,0.8-0.6
			c0.4-0.3,0.8-0.7,1.3-1.1c0.9-0.8,1.7-1.7,2.3-2.6c0.6-0.9,1-1.5,1.1-2c0.2-1-0.2-1.5-1-1.5c-0.3,0-0.7,0.2-1.1,0.7
			s-0.9,1-1.4,1.7s-0.9,1.5-1.3,2.3C499.3,57.2,499,58,498.7,58.9z"/>
		<path d="M535.1,20.9c0.2,0.2,0.2,0.4,0.2,0.9c0,0.4-0.1,1.3-0.2,2.7c-0.2,0.9-0.3,1.7-0.4,2.4c-0.1,0.7-0.3,1.4-0.5,2.1
			c-0.2,0.7-0.5,1.4-0.9,2.2s-0.8,1.7-1.3,2.8c-2.8,5.6-6.4,10.4-10.7,14.2c-0.4,0.4-0.9,0.8-1.4,1.3s-1.1,0.9-1.7,1.3
			c-0.6,0.4-1.1,0.8-1.5,1.1c-0.5,0.3-0.8,0.5-0.9,0.5c-0.2,0.1-0.5,0.7-0.9,1.9c-0.5,1.2-1,2.5-1.5,3.9c-0.5,1.4-1,2.8-1.4,4
			c-0.4,1.2-0.5,1.9-0.5,1.9c2.7,1.1,5.6,0.8,8.9-0.7c3.3-1.6,6.4-4.1,9.3-7.6c0.2-0.2,0.4-0.2,0.6-0.2c0.3,0,0.2,0.2-0.1,0.6
			c-1,1.1-2.2,2.3-3.6,3.6c-1.4,1.3-2.9,2.3-4.6,3.2c-1.6,0.9-3.4,1.6-5.2,1.9c-1.9,0.4-3.8,0.3-5.8-0.2c0,0.3,0,0.6,0.1,0.9
			c0.1,0.3,0.2,0.6,0.2,1c0.1,0.4,0.2,0.8,0.3,1.1c0.6,2.5,0.9,5,0.9,7.4c0,2.4-0.3,5.1-0.9,8c-0.5,3-1.3,4.9-2.4,5.7
			c-0.9,0.8-1.7,1-2.5,0.5c-0.9-0.6-1.3-2.7-1.1-6.2c0.2-3.5,0.9-7.8,2.2-12.9c2.1-8.6,5.1-16.8,9-24.7c3.4-6.8,6.5-12.5,9.2-16.9
			c2.7-4.4,4.8-7,6.2-7.8C533.6,20.3,534.5,20.3,535.1,20.9z M511.8,73.6c0-0.6-0.1-1.3-0.2-2.2c-0.1-0.8-0.2-1.6-0.3-2.3
			c-0.1-0.7-0.2-1.3-0.4-1.8c-0.2-0.5-0.3-0.6-0.3-0.6c-0.1,0.1-0.2,0.4-0.3,1.1c-0.2,0.6-0.3,1.4-0.6,2.2
			c-1.1,4.6-1.9,8.4-2.2,11.5c-0.3,3.1-0.3,5.3,0.1,6.6c0.2,0.5,0.5,0.8,0.7,0.8c0.2,0,0.6-0.3,1-0.8c0.6-0.8,1.1-1.9,1.5-3.3
			c0.4-1.4,0.7-3.4,0.9-5.8c0.2-0.9,0.2-1.9,0.3-2.9C511.9,75,511.9,74.2,511.8,73.6z M529.5,37.1c1.4-2.4,2.6-4.7,3.4-6.9
			s1.3-4.2,1.5-6c0.2-1.5,0.1-2.5-0.1-2.9c-0.2-0.4-0.6-0.4-1.3-0.1c-0.8,0.5-2,2.1-3.6,4.6c-1.6,2.5-3.3,5.4-5.1,8.5
			c-1.1,2.1-2.1,4.1-3.2,6.2c-1.1,2.1-2,3.9-2.8,5.6c-0.8,1.7-1.4,3-1.9,4s-0.6,1.5-0.6,1.5c0.1,0,0.3-0.2,0.7-0.5
			c0.4-0.3,0.8-0.6,1.4-1c2.2-1.6,4.3-3.6,6.3-5.9C526.3,41.9,528.1,39.5,529.5,37.1z"/>
		<path d="M528.5,64.8c-0.4-0.3-0.6-0.8-0.7-1.4c-0.2-0.9,0-2.4,0.6-4.3c0.5-2,1.3-4.1,2.3-6.3c0.6-1.3,1-2.1,1.2-2.3
			c0.2-0.3,0.5-0.4,0.9-0.4c0.4,0,0.5,0.2,0.3,0.5c-0.6,1.1-1.2,2.4-1.9,4c-0.6,1.6-1.3,3.5-1.9,5.7c-0.1,0.3-0.2,0.7-0.2,1.1
			c-0.1,0.4-0.1,0.8-0.1,1.2c0,2,0.6,2.7,1.9,2.1c1.3-0.6,3.2-2.6,5.9-5.9c0.6-0.7,1.1-1.3,1.6-1.9c0.5-0.6,0.7-0.9,0.8-0.9
			c0.2,0,0.1,0.2-0.1,0.5c-0.2,0.3-0.7,1.1-1.7,2.3c-1.1,1.5-2.2,2.8-3.2,3.9c-1,1.1-1.8,1.8-2.5,2.2c-0.6,0.4-1.2,0.6-1.8,0.7
			C529.3,65.3,528.8,65.2,528.5,64.8z M534.6,47.3c0,0.3-0.2,0.5-0.6,0.5c-0.4,0-0.6-0.2-0.6-0.5c0-0.4,0.2-0.6,0.6-0.6
			C534.5,46.7,534.6,46.9,534.6,47.3z"/>
		<path d="M548.2,54c0.8-2,1.4-3.4,1.7-4.3c0.3-0.9,0.4-1.4,0.2-1.5c-0.2-0.1-0.6,0.3-1.5,1.1c-0.8,0.8-1.8,1.9-2.9,3.2
			c-1.1,1.3-2.1,2.7-3.2,4.2c-1.1,1.4-1.9,2.7-2.5,3.6c-0.2,0.5-0.5,0.9-0.9,1.4c-0.3,0.5-0.6,0.9-0.7,1.3c-0.3,0.4-0.5,0.8-0.6,1.4
			c-0.1,0.5-0.3,0.8-0.7,0.8c-0.4,0-0.6-0.2-0.6-0.5c0-0.3,0.1-1.2,0.3-2.5c0.1-0.5,0.2-1.3,0.5-2.2c0.2-0.9,0.5-1.8,0.8-2.8
			c0.3-0.9,0.6-1.9,0.9-2.7c0.3-0.9,0.5-1.5,0.7-2c0.4-0.8,0.6-1.4,0.8-1.7c0.2-0.3,0.4-0.5,0.8-0.6c0.5,0,0.8,0.2,0.7,0.7l-3.1,9.1
			c-0.2,0.4-0.2,0.6-0.1,0.5c0.1,0,0.3-0.3,0.7-0.9c0.5-0.8,1.1-1.7,1.9-2.8c0.8-1.1,1.6-2.2,2.5-3.2c0.8-1.1,1.7-2.1,2.5-3
			c0.8-0.9,1.5-1.6,2-2.1c0.6-0.5,1-0.9,1.3-1c0.2-0.2,0.5-0.2,0.8-0.2c0.5,0,0.7,0.2,0.8,0.7c0.2,0.5,0.1,1.2-0.1,2.1
			c-0.2,0.8-0.8,2.2-1.6,4.2c-1.2,2.9-2.1,5.1-2.7,6.6c-0.6,1.5-1,2.7-1.2,3.4c-0.2,0.8-0.2,1.4,0.1,1.8c0.3,0.3,0.6,0.5,0.8,0.4
			c0.5-0.2,1.2-0.7,2.1-1.4c0.8-0.7,1.7-1.5,2.7-2.5c0.9-0.9,1.9-1.9,2.9-3c1-1.1,1.9-2.1,2.7-3c0.4-0.5,0.6-0.8,0.7-1
			c0.1-0.2,0.2-0.3,0.3-0.3c0.3,0,0,0.6-0.8,1.7c-1.1,1.5-2.4,3.1-4.1,4.7c-1.7,1.6-3,2.9-4.1,3.9c-0.8,0.7-1.6,1.2-2.3,1.5
			c-0.7,0.3-1.3,0.3-1.8-0.1c-0.3-0.2-0.5-0.6-0.6-1.1c-0.1-0.5,0-1.2,0.2-2.2c0.2-1,0.6-2.3,1.2-3.9
			C546.3,58.4,547.1,56.4,548.2,54z"/>
		<path d="M645.6,68.9c0.9-0.8,1.4-0.9,1.4-0.6c0,0.2-0.4,0.5-1.2,1.1c-0.8,0.6-1.5,1.1-2.2,1.5c-0.8,0.4-2,0.8-3.4,1.3
			c-1.4,0.5-2.9,0.8-4.4,1.1l-2.1,0.5l-1.5,2.7c-0.9,1.6-2,3.4-3.3,5.4c-1.3,2-2.4,3.6-3.2,4.7c-1,1.3-2.3,2.7-3.8,4.3
			c-1.6,1.6-2.9,2.8-4,3.8c-1.1,0.9-2.2,1.7-3.4,2.4c-1.2,0.7-2.2,1.1-3.1,1.4c-0.7,0.2-1.6,0.2-2.7,0.3c-1.1,0-1.9-0.1-2.3-0.3
			c-4.7-1.9-6.5-8-5.5-18.4c0.1-0.8,0.2-1.8,0.3-2.9c0.1-1.1,0.2-1.9,0.4-2.6c0.1-0.4,0.1-0.7,0.1-1c0-0.3,0-0.5,0.1-0.7
			c0-0.3,0-0.6,0.1-0.8c-0.3-0.2-1-0.6-1.9-1.3c-1-0.7-1.8-1.4-2.4-2c-0.8-0.8-1.6-1.7-2.4-2.7c-0.8-1.1-1.5-2.2-2.2-3.3
			c-0.7-1.1-1.3-2.3-1.8-3.4c-0.5-1.1-0.9-2.2-1.1-3.3c-0.2-0.6-0.3-0.9-0.3-0.9c-0.1-0.1-0.3,0-0.8,0.2s-1,0.5-1.6,0.9
			c-0.6,0.4-1.3,0.8-1.9,1.4c-0.7,0.5-1.3,1.1-1.9,1.6c-0.5,0.5-1.1,1-1.8,1.7c-0.6,0.6-1.3,1.3-2,2c-0.7,0.7-1.3,1.4-1.9,2.1
			c-0.6,0.7-1,1.3-1.4,1.8c-0.9,1.2-1.7,2.5-2.5,3.9c-0.8,1.4-1.4,2.7-1.9,3.9c-0.5,1.3-1,2.4-1.3,3.5c-0.3,1.1-0.4,2-0.3,2.8
			c0,1.3,0.2,1.5,0.7,0.7c0.5-0.8,0.8-0.9,0.8-0.6c0,0.2-0.2,0.6-0.5,1c-0.3,0.4-0.6,0.6-0.7,0.6c-0.8,0.2-1.1-0.5-1.1-2
			c0-1.5,0.5-3.2,1.3-5.2c0.9-2.4,2.1-4.6,3.4-6.7c1.4-2.1,3.1-4.2,5.1-6.4c3.3-3.6,6.7-6.2,10.1-8c0-0.2-0.1-0.9-0.3-1.9
			c-1-5.3-0.9-10.8,0.3-16.3c2.9-12,9.5-21.5,19.8-28.5c1.4-1,3.1-2,4.8-3c1.8-1,3.2-1.7,4.3-2.2c2.1-1,4.1-1.7,5.8-2
			c1.7-0.3,3.7-0.5,5.9-0.5c1.3-0.1,2.2-0.1,2.7,0c0.5,0.1,1.1,0.2,1.7,0.3c2.1,0.7,4,1.8,5.9,3.4c1.9,1.6,3.3,3.3,4.3,5.2
			c1.2,2.5,2.1,6.2,2.7,10.9c0.1,0.8,0.1,1.7,0.2,3c0,1.2,0,2.5-0.1,3.8c-0.1,1.3-0.2,2.6-0.2,3.9c-0.1,1.3-0.2,2.3-0.3,3.2
			c-1.1,6.5-2.5,12.6-4.3,18.3c-1.8,5.7-4.1,11.6-7,17.5c-0.2,0.5-0.5,1-0.7,1.4c-0.2,0.4-0.4,0.8-0.6,1.1c-0.2,0.4-0.4,0.8-0.5,1.1
			c0,0.1,0.5,0,1.5-0.2c1-0.2,2-0.5,3-0.7c1.7-0.5,3.2-1,4.3-1.5C643.8,70.3,644.7,69.7,645.6,68.9z M635.3,68.5
			c1.7-3.6,3.2-6.9,4.4-10c1.2-3.1,2.3-6.5,3.3-10c4-14.5,4.7-26.4,2.2-35.6c-1.4-4.9-4.4-8.6-8.9-10.9c-1-0.5-1.9-0.9-2.8-1.1
			c-0.9-0.2-2-0.3-3.4-0.3c-3.3,0-6.6,0.6-9.7,1.9c-3.2,1.3-6.9,3.3-11.1,6.2c-5.2,3.6-9.6,8.2-13.1,13.6c-2.9,4.6-4.9,9.7-6,15.2
			c-1.1,5.5-1.1,10.7-0.1,15.6l0.2,0.9l2.6-1.1c0.7-0.4,1.7-0.8,2.9-1.4c1.3-0.5,2.4-1,3.5-1.5c1.4-0.6,2.7-1.2,3.8-1.7
			c1.1-0.5,2.1-1.1,3.1-1.7c1-0.6,2-1.2,2.9-1.9c0.9-0.7,2-1.4,3-2.3c0.6-0.5,1.1-1,1.6-1.4c0.5-0.4,0.9-1,1.4-1.7
			c0.4-0.5,0.8-1.1,1.2-1.6c0.4-0.5,0.7-0.9,1-1.3c0.4-0.5,0.7-0.7,0.9-0.9c0.2-0.1,0.4-0.2,0.7-0.2c0.5,0,0.7,0.1,0.7,0.2
			c0,0.1-0.2,0.3-0.7,0.8c-0.5,0.5-0.9,1-1.3,1.6c-2.6,3.9-4.8,7.9-6.7,12.1c-1.9,4.2-3.5,8.7-4.9,13.6c-0.6,2-1.1,3.9-1.6,5.9
			s-0.6,3-0.6,3.1c0.1,0.2,0.4,0.3,1,0.5c0.6,0.2,1.3,0.4,2.1,0.6c0.8,0.2,1.6,0.4,2.4,0.6c0.8,0.2,1.6,0.3,2.2,0.4
			c0.5,0.1,1.2,0.1,2.2,0.2c1,0,2.1,0.1,3.2,0.1s2.3,0,3.4-0.1c1.1,0,2-0.1,2.7-0.2c1.4-0.2,3-0.3,4.7-0.5c1.7-0.2,3-0.4,3.9-0.5
			l1.3-0.2L635.3,68.5z M603.2,66.9c1.1-4.2,2.4-8.3,4-12.3c1.6-4,3.5-7.8,5.6-11.6c0.1-0.2,0-0.2-0.2,0c-0.2,0.2-0.9,0.7-2.2,1.6
			c-0.9,0.7-1.7,1.3-2.5,1.8c-0.8,0.5-1.6,1-2.5,1.4s-2,1-3.2,1.5c-1.3,0.5-2.9,1.2-4.8,2.1c-4.5,1.9-6.7,3-6.7,3.2
			c0,0.2,0.2,0.8,0.6,1.8c1,3,2.3,5.8,3.9,8.3c1.6,2.5,3.5,4.5,5.6,6l1.4,0.9l0.1-0.7L603.2,66.9z M631.2,76.4
			c0.2-0.3,0.3-0.6,0.5-0.9c0.2-0.3,0.4-0.6,0.5-0.8l0.3-0.7c-0.1,0.1-0.2,0.1-0.3,0.1h-0.7c-0.5,0.2-1.3,0.3-2.2,0.4
			c-0.9,0.1-1.9,0.2-3,0.3c-1.1,0.1-2.1,0.2-3.2,0.3c-1.1,0.1-2,0.2-2.8,0.2c-2.9,0.2-5.4,0.1-7.6-0.1c-2.2-0.2-4.3-0.6-6.4-1.2
			l-2.6-0.8l-0.2,1.1c-0.6,3.3-1,6.6-1.1,9.7c-0.2,3.1,0,5.6,0.3,7.5c0.3,1.4,0.9,2.6,1.7,3.8c0.8,1.2,1.7,2,2.5,2.3
			c0.5,0.2,1,0.4,1.8,0.4c0.7,0,1.4-0.1,2.1-0.3c2-0.6,4.3-2,6.8-4c2.6-2.1,5-4.6,7.2-7.5c0.8-1.1,1.9-2.7,3.1-4.6
			C629.2,80,630.3,78.2,631.2,76.4z"/>
		<path d="M657.4,54c0.8-2,1.4-3.4,1.7-4.3c0.3-0.9,0.4-1.4,0.2-1.5c-0.2-0.1-0.6,0.3-1.5,1.1c-0.8,0.8-1.8,1.9-2.9,3.2
			c-1.1,1.3-2.1,2.7-3.2,4.2c-1.1,1.4-1.9,2.7-2.5,3.6c-0.2,0.5-0.5,0.9-0.9,1.4c-0.3,0.5-0.6,0.9-0.7,1.3c-0.3,0.4-0.5,0.8-0.6,1.4
			c-0.1,0.5-0.3,0.8-0.7,0.8c-0.4,0-0.6-0.2-0.6-0.5c0-0.3,0.1-1.2,0.3-2.5c0.1-0.5,0.2-1.3,0.5-2.2c0.2-0.9,0.5-1.8,0.8-2.8
			c0.3-0.9,0.6-1.9,0.9-2.7c0.3-0.9,0.5-1.5,0.7-2c0.4-0.8,0.6-1.4,0.8-1.7c0.2-0.3,0.4-0.5,0.8-0.6c0.5,0,0.8,0.2,0.7,0.7l-3.1,9.1
			c-0.2,0.4-0.2,0.6-0.1,0.5c0.1,0,0.3-0.3,0.7-0.9c0.5-0.8,1.1-1.7,1.9-2.8c0.8-1.1,1.6-2.2,2.5-3.2c0.8-1.1,1.7-2.1,2.5-3
			c0.8-0.9,1.5-1.6,2-2.1c0.6-0.5,1-0.9,1.3-1c0.2-0.2,0.5-0.2,0.8-0.2c0.5,0,0.7,0.2,0.8,0.7c0.2,0.5,0.1,1.2-0.1,2.1
			c-0.2,0.8-0.8,2.2-1.6,4.2c-1.2,2.9-2.1,5.1-2.7,6.6c-0.6,1.5-1,2.7-1.2,3.4c-0.2,0.8-0.2,1.4,0.1,1.8c0.3,0.3,0.6,0.5,0.8,0.4
			c0.5-0.2,1.2-0.7,2.1-1.4c0.8-0.7,1.7-1.5,2.7-2.5c0.9-0.9,1.9-1.9,2.9-3c1-1.1,1.9-2.1,2.7-3c0.4-0.5,0.6-0.8,0.7-1
			c0.1-0.2,0.2-0.3,0.3-0.3c0.3,0,0,0.6-0.8,1.7c-1.1,1.5-2.4,3.1-4.1,4.7c-1.7,1.6-3,2.9-4.1,3.9c-0.8,0.7-1.6,1.2-2.3,1.5
			c-0.7,0.3-1.3,0.3-1.8-0.1c-0.3-0.2-0.5-0.6-0.6-1.1c-0.1-0.5,0-1.2,0.2-2.2c0.2-1,0.6-2.3,1.2-3.9
			C655.5,58.4,656.4,56.4,657.4,54z"/>
		<path d="M675.9,58.1c-0.3,2.2-0.5,3.9-0.5,5.1c0,1.2,0.1,2.4,0.3,3.4c0.2,0.8,0.4,1.6,0.7,2.2c0.3,0.6,0.6,1,1,1.3
			c0.3,0.2,0.5,0.2,0.7,0.2c0.2,0,0.4-0.1,0.8-0.2c1.1-0.5,2.2-1.5,3.5-3s2.4-3,3.5-4.6c1.1-1.6,2-3,2.7-4.3c0.8-1.3,1.1-2,1.1-2.2
			c0-0.2,0.2-0.2,0.5-0.2c0.2,0,0.2,0.1,0.1,0.2c-0.1,0.2-0.3,0.6-0.7,1.4c-0.7,1.3-1.5,2.6-2.3,4c-0.9,1.4-1.8,2.7-2.7,3.9
			c-0.9,1.2-1.8,2.2-2.7,3.1c-0.9,0.9-1.7,1.6-2.3,1.9c-1.1,0.7-2.2,0.7-3.3,0c-1.8-1.3-2.5-4.6-2.1-10l0.2-3.4l-1.7,2.4
			c-3,4.1-5.2,6.2-6.6,6.2c-0.5,0-0.8-0.1-0.9-0.2c-0.2-0.1-0.3-0.4-0.5-0.7c-0.2-0.5-0.2-1.3,0-2.6c0.2-1.3,0.4-2.4,0.8-3.5
			c0.4-1,1-2.1,1.8-3.5c0.8-1.3,1.5-2.3,2.1-2.8c0.6-0.6,1.3-1.1,2-1.4c0.7-0.3,1.3-0.5,1.9-0.5c0.4,0,0.8,0.2,1.2,0.5
			c0.4,0.3,0.7,0.7,0.9,1.1c0.1-0.2,0.2-0.6,0.3-1.3s0.2-1.4,0.4-2.1c0.5-2.3,1.1-4.7,1.9-7.4c0.8-2.6,1.7-5.3,2.7-8.1
			c1-2.8,2.2-5.5,3.4-8.3c1.3-2.8,2.6-5.5,3.9-8.2c1.8-3.6,3.3-6.3,4.4-8c1.1-1.8,2.1-3.1,3-3.9c0.5-0.5,0.8-0.7,1-0.9
			c0.2-0.1,0.4-0.2,0.7-0.2c0.9,0.1,1.3,1.1,1,3.1c-0.1,2.2-1,5.6-2.6,10.1c-0.7,2.1-1.7,4.5-3,7.3c-1.3,2.8-2.7,5.8-4.3,8.8
			c-1.6,3.1-3.2,6.1-4.8,9.2c-1.7,3-3.3,5.8-4.8,8.2l-2.2,3.5L675.9,58.1z M675,53c-0.2-0.4-0.4-0.8-0.6-1.3
			c-0.3-0.5-0.6-0.7-1.1-0.7c-0.6,0-1.4,0.5-2.3,1.5c-0.9,1-1.8,2.2-2.7,3.8c-0.9,1.5-1.6,3.1-2.1,4.6c-0.5,1.6-0.6,2.8-0.3,3.6
			c0.1,0.4,0.2,0.5,0.5,0.5c0.2-0.1,0.6-0.3,1.3-0.8c0.6-0.5,1.2-1,1.8-1.7c0.6-0.7,1.4-1.7,2.5-3.2c0.7-0.9,1.2-1.7,1.6-2.2
			c0.4-0.6,0.7-1.1,0.9-1.5c0.2-0.5,0.3-0.9,0.4-1.3C674.8,53.8,674.9,53.4,675,53z M677.9,46.6c-0.5,2.2-0.9,3.7-1,4.5
			c-0.2,0.8-0.2,1.1,0,1l1.6-2.4c1-1.6,2.1-3.5,3.3-5.6c1.2-2.1,2.4-4.4,3.6-6.7c1.2-2.4,2.4-4.7,3.6-7.2c1.2-2.4,2.3-4.7,3.3-7
			c0.8-1.8,1.6-3.6,2.3-5.5s1.3-3.5,1.7-5.1c0.5-1.6,0.8-3,1-4.3c0.2-1.3,0.2-2.3,0.2-3c-0.1-0.7-0.2-1.1-0.4-1.2
			c-0.2-0.1-0.5,0-0.9,0.4c-0.8,0.8-1.7,2-2.7,3.8c-1.1,1.8-2.5,4.5-4.3,8.2c-2.7,5.2-4.9,10.4-6.8,15.6
			C680.5,37.2,679,42,677.9,46.6z"/>
		<path d="M710,55.3c0.2,0,0.2,0.2,0.1,0.5c-0.1,0.3-0.5,1.1-1.1,2.2c-0.5,0.9-1.1,2.1-2.1,3.5c-0.9,1.4-1.9,2.9-3,4.6
			c-1.1,1.6-2.2,3.3-3.4,5c-1.2,1.7-2.3,3.3-3.4,4.7c-1.1,1.4-2,2.7-2.9,3.6c-0.8,1-1.4,1.6-1.8,1.8c-0.5,0.3-0.8,0.5-1.1,0.6
			c-0.3,0.1-0.7,0.1-1.2,0.1c-0.7,0-1.2-0.2-1.5-0.7c-0.3-0.5-0.6-1.1-0.7-1.9c-0.2-0.8-0.2-1.7-0.1-2.7c0.1-1,0.2-2,0.5-3
			c0.2-0.8,0.4-1.9,0.7-3.1c0.3-1.2,0.7-2.4,1-3.6c0.3-1.2,0.7-2.3,1-3.3c0.3-1,0.5-1.8,0.7-2.2V61v-0.2c-1-1.1-1.8-2.4-2.5-3.8
			c-0.6-1.4-0.5-2.9,0.4-4.4c0.2-0.5,0.6-0.7,1-0.6c0.1,0,0.2,0,0.2,0.1c0.2,0.1,0.3,0.3,0.5,0.7c0.1,0.5-0.1,1.3-0.6,2.5
			c0,0.7,0.2,1.4,0.6,2.2c0.4,0.8,1,1.5,1.8,2.1c0.5,0.4,0.6,0.8,0.4,1.4c-0.2,0.5-0.5,1.3-0.9,2.4c-0.6,1.8-1.1,3.3-1.5,4.5
			c-0.4,1.2-0.7,2.2-1,3.1c-0.3,0.9-0.5,1.7-0.6,2.5c-0.2,0.7-0.3,1.5-0.5,2.3c-0.3,2.7-0.2,4.3,0.3,5c0.4,0.5,0.9,0.6,1.7,0.3
			c0.5-0.2,1.6-1.2,3.1-3.1c1.5-1.9,3.2-4.1,5-6.6c1.8-2.5,3.5-5,5.2-7.5c1.7-2.5,2.9-4.5,3.8-6c0.5-0.8,0.9-1.4,1.2-1.9
			C709.7,55.6,709.9,55.3,710,55.3z"/>
		<path d="M714.8,75.5c-0.4-0.3-0.6-0.7-0.6-1.3c0-0.6,0-1.4,0.2-2.6c0.2-1.1,0.4-2.4,0.8-3.8c0.4-1.4,0.8-2.9,1.3-4.4
			c0.5-1.6,1-3.1,1.5-4.6c0.6-1.5,1.2-2.9,1.8-4.2c0.2-0.3,0-0.2-0.5,0.4c-0.5,0.6-1.4,1.8-2.7,3.7c-1.7,2.4-3.1,4-3.9,4.8
			c-0.9,0.8-1.7,1.1-2.6,1.1c-1,0-1.6-0.4-1.7-1.3c-0.2-0.6-0.2-1.5,0-2.6c0.2-1.1,0.4-2.3,0.7-3.5c0.3-1.2,0.7-2.3,1.1-3.4
			c0.4-1.1,0.9-1.8,1.3-2.2c0.2-0.2,0.4-0.4,0.8-0.5c0.4-0.1,0.6,0,0.8,0.1c0.1,0.1-0.1,0.5-0.6,1.4c-0.5,0.8-1,1.8-1.5,3.2
			c-0.5,1.4-0.8,2.9-1.1,4.4c-0.2,1.1-0.4,1.8-0.4,2.2c0,0.4,0,0.7,0.1,1c0.2,0.4,0.4,0.6,0.6,0.6c0.3,0,0.7-0.2,1.4-0.7
			c0.4-0.3,0.8-0.7,1.3-1.3c0.5-0.5,1.1-1.3,1.9-2.4c0.7-0.9,1.4-1.9,2.2-2.9c0.8-1,1.5-1.9,2.2-2.8c0.7-0.9,1.3-1.6,1.8-2.2
			c0.5-0.6,0.8-0.9,1-1.1c0.6-0.6,0.9-0.6,0.9,0c0,0.2-0.1,0.5-0.4,1.1c-0.3,0.6-0.6,1.3-1,2.2c-1.5,3.3-2.7,6.3-3.6,9.1
			c-0.9,2.8-1.6,5.4-2.1,7.8c-0.3,1.6-0.4,2.7-0.3,3.2c0.1,0.5,0.3,0.8,0.7,0.9c0.3,0.1,0.8-0.2,1.5-0.9c0.7-0.6,1.4-1.4,2.1-2.2
			c0.3-0.5,0.9-1.3,1.8-2.7c0.9-1.3,1.8-2.8,2.7-4.3c0.9-1.5,1.9-3,2.7-4.4c0.9-1.4,1.5-2.5,1.9-3.2c0.8-1.4,1.2-2.2,1.4-2.2
			c0.2,0,0.3,0.2,0.1,0.7c-0.2,0.5-0.7,1.5-1.6,3c-3.2,5.5-5.9,9.6-8,12.5c-2.1,2.8-3.8,4.3-4.9,4.3C715.3,75.9,715,75.8,714.8,75.5
			z"/>
		<path d="M741.1,55.8c0.2-0.3,0.3-0.5,0.5-0.5c0.2,0,0.3,0.1,0.3,0.3c0,0.3-0.3,0.8-1,1.5c-0.7,0.7-1.5,1.4-2.6,2.2
			c-1,0.8-2.1,1.6-3.4,2.5c-1.2,0.8-2.4,1.6-3.4,2.2l-1.5,0.9v3.8c0.1,1.4,0,2.9-0.2,4.6c-0.2,1.7-0.5,2.9-0.9,3.5
			c-0.6,1.3-1.4,2.1-2.5,2.5c-0.4,0.2-0.8,0.2-1.4,0.2c-0.5,0-1-0.1-1.4-0.2c-1-0.4-1.6-1.3-1.8-2.9c-0.2-1.6,0-3.1,0.6-4.7
			c0.5-1.1,1.1-2.3,2.1-3.4c0.9-1.1,2-2,3.2-2.7c0.5-0.4,0.7-0.6,0.9-0.7c0.1-0.1,0.2-0.3,0.2-0.6c-0.2-1.4-0.2-2.6-0.2-3.4
			c0-0.8,0.2-1.7,0.4-2.5c0.4-1.5,0.9-3,1.4-4.4c0.6-1.4,1.1-2.4,1.7-3c0.3-0.2,0.7-0.4,1.1-0.5c0.5-0.1,0.7,0,0.7,0.2
			c0,0.1-0.1,0.2-0.2,0.4c-0.2,0.2-0.3,0.4-0.5,0.7c-0.5,0.6-1,1.6-1.6,3.1c-0.6,1.4-1,2.7-1.3,3.8c-0.2,0.9-0.4,2-0.5,3.2
			c-0.1,1.2,0,1.9,0.1,2.1c0.5,0,1.2-0.3,2.3-1c1.1-0.7,2.3-1.5,3.5-2.3c1.2-0.9,2.3-1.7,3.4-2.6C740.1,56.9,740.8,56.3,741.1,55.8z
			 M726.7,78.1c0.8-0.7,1.4-1.8,1.8-3.5c0.4-1.6,0.5-3.6,0.5-6c-0.1-1.3-0.1-2.1-0.2-2.5c0-0.4-0.1-0.5-0.3-0.5
			c-0.3,0.1-0.7,0.3-1.1,0.6c-0.5,0.3-0.9,0.7-1.4,1.2s-0.9,0.9-1.3,1.4c-0.4,0.5-0.6,0.8-0.8,1.1c-0.8,1.4-1.3,2.9-1.4,4.3
			c-0.1,1.4,0.2,2.7,1,3.6C724.4,79.2,725.4,79.3,726.7,78.1z"/>
	</g>
	<path class="st0" d="M741.3,56.1c1-1.3,1.9-2.5,2.8-3c1.2-0.7,2.8-0.6,4.2-0.6c1.8,0,3.7,0,5.5,0.4c2.6,0.6,4.9,2.1,7.6,2.5
		c3,0.5,6-0.3,8.8-1.5c2.8-1.2,5.4-2.8,8.2-3.8c4.7-1.8,17,6.3,22,6"/>
	<path class="st0" d="M60.2,55.4c0.8,3.8,0.2,6.5-0.7,6.8c-1.4,0.5-4.3-0.4-5.7-0.7c-1.3-0.3-2.8-1-4.6-1.4
		c-2.6-0.7-4.9-2.2-7.5-2.6c-3-0.6-6,0.2-8.8,1.4s-5.4,2.7-8.3,3.7c-4.7,1.7-16.3-9.4-24.3-6"/>
</g>
<line class="st1" x1="-3.2" y1="56.4" x2="802.4" y2="56.4"/>
</svg>
