<?xml version="1.0" encoding="utf-8"?>
<!-- Generator: Adobe Illustrator 23.0.6, SVG Export Plug-In . SVG Version: 6.00 Build 0)  -->
<svg version="1.1" id="Layer_1" xmlns="http://www.w3.org/2000/svg" xmlns:xlink="http://www.w3.org/1999/xlink" x="0px" y="0px"
	 viewBox="0 0 1098.2 1057.3" style="enable-background:new 0 0 1098.2 1057.3;" xml:space="preserve">
<style type="text/css">
	.st0{fill:#993333;}
	.st1{fill:#CC4D33;}
</style>
<g transform="translate(0.000000,1280.000000) scale(0.100000,-0.100000)">
	<path class="st0" d="M6541.1,12790.1c-73.2-4.1-243.2-22.7-376.1-40.2s-301.9-38.1-376.1-46.4c-161.8-18.5-519.3-17.5-747,1
		c-572.9,46.4-984,58.7-1201.5,35c-207.1-23.7-369.9-61.8-578.1-138.1c-88.6-33-273.1-128.8-362.7-188.6
		c-36.1-24.7-68-44.3-71.1-44.3c-8.2,0-174.1-123.6-205.1-151.5c-13.4-13.4-27.8-23.7-30.9-23.7c-40.2,0-622.4-586.3-1012.9-1020.1
		c-134-149.4-239.1-257.6-250.4-257.6c-5.2,0-18.5-11.3-29.9-25.8c-11.3-14.4-24.7-25.8-29.9-25.8c-6.2,0-44.3-25.8-84.5-57.7
		c-41.2-31.9-83.5-61.8-95.8-65.9c-11.3-5.2-51.5-29.9-88.6-55.6c-37.1-25.8-71.1-47.4-75.2-47.4s-44.3-26.8-89.6-58.7
		c-45.3-33-94.8-65.9-109.2-74.2c-15.5-7.2-74.2-60.8-131.9-118.5c-109.2-109.2-162.8-191.7-231.8-357.6
		c-156.6-375.1-215.4-739.8-200.9-1245.8c11.3-352.4,8.2-518.3-9.3-654.3c-14.4-115.4-24.7-174.1-91.7-526.5
		C17.6,7375.3,0,7219.7,0,7051.7c-2.1-335.9,63.9-504.9,373-968.6c188.6-283.4,223.6-341.1,272-450.3
		c62.9-142.2,109.2-334.9,157.7-651.2c72.1-480.2,127.8-662.6,256.6-833.6c85.5-113.3,367.9-336.9,530.7-419.4
		c177.2-89.6,294.7-125.7,630.6-195.8c378.2-77.3,529.6-128.8,828.4-281.3c312.2-157.7,504.9-295.7,787.2-563.6
		c149.4-141.2,244.2-214.3,350.3-267.9c259.7-130.9,512.1-192.7,788.3-192.7c300.9,0,524.5,53.6,1066.5,251.4
		c627.5,230.8,788.3,270,1514.7,368.9c660.5,90.7,926.3,151.5,1181.9,273.1c408,192.7,549.2,417.3,719.2,1143.8
		c108.2,461.6,155.6,625.5,225.7,767.7c67,139.1,195.8,295.7,528.6,641.9c404.9,421.4,541,665.6,675.9,1207.6
		c86.6,346.2,94.8,399.8,94.8,659.5c0,262.8-7.2,314.3-88.6,654.3c-107.2,446.2-168,552.3-591.5,1025.3
		c-291.6,326.6-373,486.4-520.4,1023.2c-73.2,265.8-110.3,377.1-165.9,490.5c-60.8,121.6-124.7,212.3-204,287.5
		c-115.4,108.2-209.2,155.6-495.6,251.4c-252.4,83.5-341.1,126.7-490.5,238c-138.1,103-243.2,215.4-629.6,671.8
		c-289.5,343.1-505.9,512.1-736.7,576c-67,18.5-307.1,45.3-368.9,40.2C6682.2,12799.4,6615.3,12794.2,6541.1,12790.1z"/>
</g>
<g transform="translate(0.000000,1280.000000) scale(0.100000,-0.100000)">
	<path class="st1" d="M6510.1,12642.7c-71-4-236-22-365-39s-293-37-365-45c-157-18-504-17-725,1c-556,45-955,57-1166,34
		c-201-23-359-60-561-134c-86-32-265-125-352-183c-35-24-66-43-69-43c-8,0-169-120-199-147c-13-13-27-23-30-23
		c-39,0-604-569-983-990c-130-145-232-250-243-250c-5,0-18-11-29-25s-24-25-29-25c-6,0-43-25-82-56c-40-31-81-60-93-64
		c-11-5-50-29-86-54s-69-46-73-46s-43-26-87-57c-44-32-92-64-106-72c-15-7-72-59-128-115c-106-106-158-186-225-347
		c-152-364-209-718-195-1209c11-342,8-503-9-635c-14-112-24-169-89-511c-42-220-59-371-59-534c-2-326,62-490,362-940
		c183-275,217-331,264-437c61-138,106-325,153-632c70-466,124-643,249-809c83-110,357-327,515-407c172-87,286-122,612-190
		c367-75,514-125,804-273c303-153,490-287,764-547c145-137,237-208,340-260c252-127,497-187,765-187c292,0,509,52,1035,244
		c609,224,765,262,1470,358c641,88,899,147,1147,265c396,187,533,405,698,1110c105,448,151,607,219,745c65,135,190,287,513,623
		c393,409,525,646,656,1172c84,336,92,388,92,640c0,255-7,305-86,635c-104,433-163,536-574,995c-283,317-362,472-505,993
		c-71,258-107,366-161,476c-59,118-121,206-198,279c-112,105-203,151-481,244c-245,81-331,123-476,231c-134,100-236,209-611,652
		c-281,333-491,497-715,559c-65,18-298,44-358,39C6647.1,12651.7,6582.1,12646.7,6510.1,12642.7z"/>
</g>
<circle class="st0" cx="549.1" cy="527.8" r="404.3"/>
<circle class="st1" cx="562.2" cy="543.5" r="390.1"/>
</svg>
